<svg width="246" height="58" viewBox="0 0 246 58" fill="none" xmlns="http://www.w3.org/2000/svg">
<g clip-path="url(#clip0_278_391)">
<path d="M228.072 45.1717C228.055 45.2803 228.042 45.3 228.03 45.1939C228.016 45.11 227.998 44.9447 227.937 44.6807C227.979 44.846 228.025 45.0113 228.072 45.1717Z" fill="#060709"/>
<path d="M82.5562 42.655V32.7502H78.6069V31.667H87.7049V32.7502H83.7557V42.655H82.5562Z" fill="#2FC3F1"/>
<path d="M89.1719 42.655V31.667H93.8545C94.5732 31.667 95.1963 31.7978 95.7261 32.0593C96.256 32.3209 96.6705 32.6861 96.9673 33.1574C97.2641 33.6287 97.4113 34.1839 97.4113 34.8205C97.4113 35.5435 97.2003 36.1629 96.7784 36.6811C96.3565 37.1993 95.7924 37.562 95.0859 37.7717L97.5364 42.655H96.2094L93.8693 37.9296H90.3738V42.655H89.1719ZM90.3738 36.9081H93.776C94.5144 36.9081 95.1055 36.7205 95.5471 36.343C95.9886 35.9655 96.2094 35.4596 96.2094 34.8205C96.2094 34.1938 95.9886 33.6904 95.5471 33.3129C95.1055 32.9353 94.5144 32.7478 93.776 32.7478H90.3738V36.9081Z" fill="#2FC3F1"/>
<path d="M98.2549 42.655L102.781 31.667H104.233L108.726 42.655H107.417L106.043 39.2004H100.894L99.5059 42.655H98.2549ZM101.314 38.1641H105.621L103.467 32.7799L101.314 38.1641Z" fill="#2FC3F1"/>
<path d="M109.99 42.655V31.667H113.596C114.427 31.667 115.192 31.8027 115.889 32.0741C116.586 32.3456 117.192 32.728 117.707 33.2191C118.222 33.7101 118.622 34.2925 118.909 34.9612C119.196 35.6299 119.338 36.3627 119.338 37.1598C119.338 37.9543 119.198 38.6872 118.916 39.3584C118.634 40.0271 118.237 40.6094 117.721 41.1005C117.206 41.5915 116.598 41.974 115.896 42.2454C115.195 42.5168 114.427 42.6525 113.596 42.6525H109.99V42.655ZM111.192 41.557H113.657C114.292 41.557 114.878 41.4459 115.421 41.2263C115.96 41.0067 116.436 40.6982 116.841 40.301C117.246 39.9037 117.562 39.4373 117.785 38.9043C118.008 38.3713 118.121 37.789 118.121 37.1622C118.121 36.5355 118.008 35.9531 117.785 35.4201C117.562 34.8872 117.248 34.4208 116.841 34.0235C116.436 33.6262 115.963 33.3178 115.421 33.0982C114.878 32.8786 114.292 32.7675 113.657 32.7675H111.192V41.557Z" fill="#2FC3F1"/>
<path d="M121.227 42.655V31.667H129.044V32.7354H122.429V36.5824H126.751V37.6335H122.429V41.589H129.108V42.6575H121.227V42.655Z" fill="#2FC3F1"/>
<path d="M134.195 42.655V31.667H142.013V32.7354H135.397V36.5824H139.719V37.6335H135.397V41.589H142.077V42.6575H134.195V42.655Z" fill="#060709"/>
<path d="M142.653 42.655L146.867 36.9574L142.918 31.667H144.385L147.583 36.0321L150.782 31.667H152.188L148.287 36.9426L152.516 42.6575H151.064L147.569 37.8704L144.059 42.6575H142.653V42.655Z" fill="#060709"/>
<path d="M153.608 42.655V31.667H158.352C159.071 31.667 159.691 31.7978 160.216 32.0593C160.741 32.3209 161.151 32.691 161.44 33.1648C161.732 33.641 161.877 34.1987 161.877 34.8378C161.877 35.4769 161.732 36.0346 161.44 36.5108C161.148 36.987 160.739 37.3596 160.206 37.6261C159.676 37.8926 159.056 38.0259 158.349 38.0259H154.807V42.6575H153.608V42.655ZM154.81 36.9722H158.259C158.997 36.9722 159.586 36.7822 160.022 36.3998C160.459 36.0173 160.677 35.5016 160.677 34.8526C160.677 34.2036 160.459 33.6904 160.022 33.3153C159.586 32.9378 158.997 32.7502 158.259 32.7502H154.81V36.9722Z" fill="#060709"/>
<path d="M168.824 42.8276C168.034 42.8276 167.298 42.6845 166.616 42.3958C165.934 42.1071 165.336 41.7049 164.82 41.1867C164.305 40.6685 163.905 40.0665 163.618 39.3805C163.331 38.6945 163.189 37.9542 163.189 37.1597C163.189 36.3651 163.331 35.6249 163.618 34.9389C163.905 34.2529 164.305 33.6508 164.82 33.1326C165.336 32.6144 165.934 32.2122 166.616 31.9235C167.298 31.6348 168.034 31.4917 168.824 31.4917C169.604 31.4917 170.335 31.6348 171.017 31.9235C171.698 32.2122 172.297 32.6144 172.812 33.1326C173.327 33.6508 173.727 34.2529 174.014 34.9389C174.301 35.6249 174.443 36.3651 174.443 37.1597C174.443 37.9542 174.301 38.6945 174.014 39.3805C173.727 40.0665 173.327 40.6685 172.812 41.1867C172.297 41.7049 171.698 42.1071 171.017 42.3958C170.335 42.6821 169.604 42.8276 168.824 42.8276ZM168.824 41.7123C169.447 41.7123 170.026 41.5963 170.555 41.3669C171.085 41.1374 171.551 40.8141 171.951 40.402C172.351 39.9875 172.662 39.5038 172.888 38.9511C173.111 38.3959 173.224 37.7988 173.224 37.1621C173.224 36.5132 173.111 35.9136 172.888 35.3658C172.665 34.8155 172.351 34.3343 171.951 33.9222C171.551 33.5077 171.085 33.1869 170.555 32.9574C170.026 32.7279 169.447 32.612 168.824 32.612C168.201 32.612 167.619 32.7279 167.084 32.9574C166.55 33.1869 166.081 33.5102 165.679 33.9222C165.279 34.3368 164.965 34.818 164.742 35.3658C164.519 35.916 164.406 36.5132 164.406 37.1621C164.406 37.8012 164.519 38.3984 164.742 38.9511C164.965 39.5063 165.277 39.99 165.679 40.402C166.079 40.8166 166.547 41.1374 167.084 41.3669C167.619 41.5988 168.198 41.7123 168.824 41.7123Z" fill="#060709"/>
<path d="M78.6069 53.1051V49.2236H79.0313V53.1051H78.6069Z" fill="#060709"/>
<path d="M82.1538 53.1051V49.2236H82.5782L84.8986 52.3747V49.2236H85.3009V53.1051H84.9256L82.5561 49.8726V53.1051H82.1538Z" fill="#060709"/>
<path d="M89.4856 53.1051V49.6061H88.0898V49.2236H91.3032V49.6061H89.9075V53.1051H89.4856Z" fill="#060709"/>
<path d="M94.0947 53.1051V49.2236H96.8567V49.6012H94.5191V50.9608H96.0473V51.3334H94.5191V52.73H96.8788V53.1076H94.0947V53.1051Z" fill="#060709"/>
<path d="M99.7637 53.1051V49.2236H101.417C101.67 49.2236 101.89 49.2705 102.079 49.3618C102.266 49.4556 102.413 49.5839 102.518 49.7492C102.624 49.9145 102.675 50.112 102.675 50.3365C102.675 50.5907 102.602 50.8103 102.452 50.9929C102.302 51.1755 102.104 51.3038 101.854 51.3778L102.719 53.1026H102.251L101.424 51.4321H100.19V53.1026H99.7637V53.1051ZM100.188 51.0768H101.39C101.65 51.0768 101.858 51.0101 102.015 50.8769C102.172 50.7436 102.251 50.5635 102.251 50.339C102.251 50.1169 102.172 49.9392 102.015 49.806C101.858 49.6727 101.65 49.6061 101.39 49.6061H100.188V51.0768Z" fill="#060709"/>
<path d="M105.589 53.1051V49.2236H106.014L108.334 52.3747V49.2236H108.736V53.1051H108.361L105.992 49.8726V53.1051H105.589Z" fill="#060709"/>
<path d="M111.457 53.1051L113.056 49.2236H113.569L115.156 53.1051H114.692L114.206 51.8861H112.386L111.896 53.1051H111.457ZM112.536 51.5185H114.057L113.296 49.616L112.536 51.5185Z" fill="#060709"/>
<path d="M118.249 53.1051V49.6061H116.853V49.2236H120.066V49.6061H118.671V53.1051H118.249Z" fill="#060709"/>
<path d="M122.858 53.1051V49.2236H123.282V53.1051H122.858Z" fill="#060709"/>
<path d="M128.212 53.1669C127.933 53.1669 127.673 53.1151 127.432 53.0139C127.192 52.9128 126.981 52.7696 126.8 52.587C126.618 52.4044 126.476 52.1922 126.375 51.9504C126.275 51.7086 126.223 51.447 126.223 51.1657C126.223 50.8844 126.275 50.6229 126.375 50.3811C126.476 50.1392 126.618 49.927 126.8 49.7444C126.981 49.5618 127.192 49.4187 127.432 49.3175C127.673 49.2164 127.933 49.1646 128.212 49.1646C128.487 49.1646 128.747 49.2164 128.988 49.3175C129.228 49.4187 129.439 49.5618 129.62 49.7444C129.802 49.927 129.944 50.1392 130.045 50.3811C130.145 50.6229 130.197 50.8844 130.197 51.1657C130.197 51.447 130.145 51.7086 130.045 51.9504C129.944 52.1922 129.802 52.4044 129.62 52.587C129.439 52.7696 129.228 52.9128 128.988 53.0139C128.745 53.1151 128.487 53.1669 128.212 53.1669ZM128.212 52.7721C128.433 52.7721 128.637 52.7326 128.823 52.6512C129.01 52.5698 129.174 52.4563 129.316 52.3107C129.459 52.1651 129.569 51.9948 129.647 51.7974C129.726 51.6025 129.765 51.3903 129.765 51.1657C129.765 50.9363 129.726 50.724 129.647 50.5316C129.569 50.3366 129.459 50.1664 129.316 50.0208C129.174 49.8752 129.01 49.7617 128.823 49.6803C128.637 49.5988 128.431 49.5594 128.212 49.5594C127.992 49.5594 127.788 49.6013 127.597 49.6803C127.408 49.7617 127.241 49.8752 127.101 50.0208C126.959 50.1664 126.849 50.3366 126.77 50.5316C126.692 50.7265 126.652 50.9363 126.652 51.1657C126.652 51.3903 126.692 51.6025 126.77 51.7974C126.849 51.9924 126.959 52.1651 127.101 52.3107C127.244 52.4563 127.408 52.5698 127.597 52.6512C127.786 52.7326 127.992 52.7721 128.212 52.7721Z" fill="#060709"/>
<path d="M133.136 53.1051V49.2236H133.56L135.881 52.3747V49.2236H136.283V53.1051H135.908L133.538 49.8726V53.1051H133.136Z" fill="#060709"/>
<path d="M139.001 53.1051L140.6 49.2236H141.113L142.7 53.1051H142.236L141.751 51.8861H139.931L139.44 53.1051H139.001ZM140.083 51.5185H141.604L140.843 49.616L140.083 51.5185Z" fill="#060709"/>
<path d="M145.42 53.1051V49.2236H145.845V52.7226H148.143V53.1051H145.42Z" fill="#060709"/>
<path d="M155.541 53.1051V49.6061H154.145V49.2236H157.359V49.6061H155.963V53.1051H155.541Z" fill="#060709"/>
<path d="M160.15 53.1051V49.2236H161.803C162.056 49.2236 162.277 49.2705 162.465 49.3618C162.652 49.4556 162.799 49.5839 162.905 49.7492C163.01 49.9145 163.062 50.112 163.062 50.3365C163.062 50.5907 162.988 50.8103 162.838 50.9929C162.689 51.1755 162.49 51.3038 162.24 51.3778L163.106 53.1026H162.637L161.811 51.4321H160.577V53.1026H160.15V53.1051ZM160.574 51.0768H161.776C162.036 51.0768 162.245 51.0101 162.402 50.8769C162.559 50.7436 162.637 50.5635 162.637 50.339C162.637 50.1169 162.559 49.9392 162.402 49.806C162.245 49.6727 162.036 49.6061 161.776 49.6061H160.574V51.0768Z" fill="#060709"/>
<path d="M165.63 53.1051L167.229 49.2236H167.742L169.329 53.1051H168.865L168.38 51.8861H166.56L166.069 53.1051H165.63ZM166.712 51.5185H168.232L167.472 49.616L166.712 51.5185Z" fill="#060709"/>
<path d="M172.049 53.1051V49.2236H173.322C173.617 49.2236 173.886 49.273 174.132 49.3668C174.377 49.463 174.593 49.5987 174.774 49.7714C174.956 49.9442 175.098 50.1514 175.199 50.3883C175.299 50.6252 175.351 50.8843 175.351 51.1656C175.351 51.4469 175.302 51.706 175.201 51.9429C175.103 52.1798 174.961 52.3846 174.779 52.5598C174.598 52.7325 174.382 52.8682 174.134 52.9644C173.886 53.0607 173.614 53.1076 173.32 53.1076H172.049V53.1051ZM172.473 52.7177H173.344C173.567 52.7177 173.776 52.6782 173.967 52.6017C174.159 52.5252 174.325 52.4142 174.47 52.2735C174.612 52.1329 174.725 51.9676 174.804 51.78C174.882 51.5925 174.921 51.3852 174.921 51.1656C174.921 50.9435 174.882 50.7387 174.804 50.5487C174.725 50.3612 174.612 50.1958 174.47 50.0552C174.328 49.9145 174.159 49.806 173.967 49.727C173.776 49.6505 173.567 49.611 173.344 49.611H172.473V52.7177Z" fill="#060709"/>
<path d="M178.29 53.1051V49.2236H181.052V49.6012H178.714V50.9608H180.242V51.3334H178.714V52.73H181.074V53.1076H178.29V53.1051Z" fill="#060709"/>
<path d="M187.414 53.1051V49.2236H190.176V49.6012H187.839V50.9608H189.367V51.3334H187.839V52.73H190.198V53.1076H187.414V53.1051Z" fill="#060709"/>
<path d="M192.674 53.1051L194.163 51.0916L192.767 49.2236H193.284L194.415 50.7659L195.546 49.2236H196.041L194.663 51.0866L196.157 53.1051H195.644L194.41 51.4124L193.169 53.1051H192.674Z" fill="#060709"/>
<path d="M198.816 53.1051V49.2236H200.491C200.744 49.2236 200.964 49.2705 201.151 49.3618C201.337 49.4556 201.48 49.5839 201.583 49.7517C201.686 49.9195 201.737 50.1169 201.737 50.3414C201.737 50.566 201.686 50.7634 201.583 50.9312C201.48 51.099 201.335 51.2298 201.146 51.326C200.96 51.4198 200.739 51.4666 200.491 51.4666H199.24V53.1026H198.816V53.1051ZM199.24 51.0965H200.459C200.719 51.0965 200.928 51.0299 201.082 50.8942C201.237 50.7584 201.313 50.5783 201.313 50.3488C201.313 50.1194 201.237 49.9392 201.082 49.806C200.928 49.6727 200.719 49.6061 200.459 49.6061H199.24V51.0965Z" fill="#060709"/>
<path d="M206.464 53.1669C206.184 53.1669 205.924 53.1151 205.684 53.0139C205.444 52.9128 205.233 52.7696 205.051 52.587C204.87 52.4044 204.727 52.1922 204.627 51.9504C204.526 51.7086 204.475 51.447 204.475 51.1657C204.475 50.8844 204.526 50.6229 204.627 50.3811C204.727 50.1392 204.87 49.927 205.051 49.7444C205.233 49.5618 205.444 49.4187 205.684 49.3175C205.924 49.2164 206.184 49.1646 206.464 49.1646C206.739 49.1646 206.999 49.2164 207.239 49.3175C207.479 49.4187 207.69 49.5618 207.872 49.7444C208.053 49.927 208.196 50.1392 208.296 50.3811C208.397 50.6229 208.448 50.8844 208.448 51.1657C208.448 51.447 208.397 51.7086 208.296 51.9504C208.196 52.1922 208.053 52.4044 207.872 52.587C207.69 52.7696 207.479 52.9128 207.239 53.0139C206.996 53.1151 206.739 53.1669 206.464 53.1669ZM206.464 52.7721C206.685 52.7721 206.888 52.7326 207.075 52.6512C207.261 52.5698 207.425 52.4563 207.568 52.3107C207.71 52.1651 207.82 51.9948 207.899 51.7974C207.977 51.6025 208.017 51.3903 208.017 51.1657C208.017 50.9363 207.977 50.724 207.899 50.5316C207.82 50.3366 207.71 50.1664 207.568 50.0208C207.425 49.8752 207.261 49.7617 207.075 49.6803C206.888 49.5988 206.682 49.5594 206.464 49.5594C206.243 49.5594 206.04 49.6013 205.848 49.6803C205.659 49.7617 205.493 49.8752 205.353 50.0208C205.21 50.1664 205.1 50.3366 205.022 50.5316C204.943 50.7265 204.904 50.9363 204.904 51.1657C204.904 51.3903 204.943 51.6025 205.022 51.7974C205.1 51.9924 205.21 52.1651 205.353 52.3107C205.495 52.4563 205.659 52.5698 205.848 52.6512C206.037 52.7326 206.243 52.7721 206.464 52.7721Z" fill="#060709"/>
<path d="M212.638 53.1619C212.334 53.1619 212.039 53.1002 211.762 52.9768C211.485 52.8534 211.237 52.6733 211.024 52.4414L211.306 52.1477C211.505 52.3624 211.716 52.5228 211.944 52.6314C212.169 52.7375 212.407 52.7917 212.658 52.7917C212.859 52.7917 213.038 52.7597 213.195 52.6955C213.352 52.6314 213.474 52.5401 213.56 52.4241C213.649 52.3081 213.693 52.1749 213.693 52.0268C213.693 51.8269 213.624 51.6739 213.487 51.5654C213.349 51.4593 213.121 51.3778 212.805 51.326L212.248 51.2372C211.878 51.1755 211.603 51.0645 211.426 50.9041C211.25 50.7461 211.161 50.529 211.161 50.2551C211.161 50.0404 211.218 49.8529 211.333 49.69C211.446 49.5272 211.605 49.4013 211.809 49.31C212.012 49.2187 212.248 49.1743 212.518 49.1743C212.79 49.1743 213.057 49.2187 213.32 49.3076C213.582 49.3964 213.823 49.5247 214.039 49.69L213.796 50.0232C213.374 49.7024 212.942 49.5395 212.501 49.5395C212.317 49.5395 212.155 49.5691 212.015 49.6259C211.875 49.6826 211.767 49.7616 211.689 49.8652C211.613 49.9664 211.573 50.0873 211.573 50.223C211.573 50.4032 211.635 50.5438 211.755 50.64C211.875 50.7363 212.076 50.8054 212.356 50.8498L212.908 50.9386C213.33 51.0102 213.636 51.1286 213.828 51.2964C214.019 51.4642 214.115 51.7011 214.115 52.0046C214.115 52.2291 214.053 52.4315 213.928 52.6067C213.803 52.7819 213.629 52.9201 213.408 53.0163C213.185 53.1125 212.927 53.1619 212.638 53.1619Z" fill="#060709"/>
<path d="M216.965 53.1051V49.2236H217.389V53.1051H216.965Z" fill="#060709"/>
<path d="M221.574 53.1051V49.6061H220.178V49.2236H223.392V49.6061H221.996V53.1051H221.574Z" fill="#060709"/>
<path d="M226.186 53.1051V49.2236H226.61V53.1051H226.186Z" fill="#060709"/>
<path d="M231.538 53.1669C231.258 53.1669 230.998 53.1151 230.758 53.0139C230.517 52.9128 230.307 52.7696 230.125 52.587C229.944 52.4044 229.801 52.1922 229.701 51.9504C229.6 51.7086 229.549 51.447 229.549 51.1657C229.549 50.8844 229.6 50.6229 229.701 50.3811C229.801 50.1392 229.944 49.927 230.125 49.7444C230.307 49.5618 230.517 49.4187 230.758 49.3175C230.998 49.2164 231.258 49.1646 231.538 49.1646C231.813 49.1646 232.073 49.2164 232.313 49.3175C232.553 49.4187 232.764 49.5618 232.948 49.7444C233.13 49.927 233.272 50.1392 233.373 50.3811C233.473 50.6229 233.525 50.8844 233.525 51.1657C233.525 51.447 233.473 51.7086 233.373 51.9504C233.272 52.1922 233.13 52.4044 232.948 52.587C232.767 52.7696 232.556 52.9128 232.313 53.0139C232.073 53.1151 231.813 53.1669 231.538 53.1669ZM231.538 52.7721C231.759 52.7721 231.962 52.7326 232.149 52.6512C232.335 52.5698 232.499 52.4563 232.642 52.3107C232.784 52.1651 232.894 51.9948 232.973 51.7974C233.051 51.6025 233.091 51.3903 233.091 51.1657C233.091 50.9363 233.051 50.724 232.973 50.5316C232.894 50.3366 232.784 50.1664 232.642 50.0208C232.499 49.8752 232.335 49.7617 232.149 49.6803C231.962 49.5988 231.756 49.5594 231.538 49.5594C231.317 49.5594 231.114 49.6013 230.922 49.6803C230.733 49.7617 230.567 49.8752 230.427 50.0208C230.284 50.1664 230.174 50.3366 230.096 50.5316C230.017 50.7265 229.978 50.9363 229.978 51.1657C229.978 51.3903 230.017 51.6025 230.096 51.7974C230.174 51.9924 230.284 52.1651 230.427 52.3107C230.569 52.4563 230.733 52.5698 230.922 52.6512C231.114 52.7326 231.317 52.7721 231.538 52.7721Z" fill="#060709"/>
<path d="M236.461 53.1051V49.2236H236.885L239.206 52.3747V49.2236H239.608V53.1051H239.233L236.863 49.8726V53.1051H236.461Z" fill="#060709"/>
<path d="M89.4293 25.1279C87.9158 25.1279 86.5005 24.8589 85.1808 24.3235C83.8611 23.788 82.7132 23.0403 81.7344 22.0854C80.7557 21.1305 79.9879 20.0127 79.436 18.7345C78.8841 17.4563 78.6069 16.0769 78.6069 14.5939C78.6069 13.1109 78.8841 11.7315 79.436 10.4533C79.9879 9.17515 80.7606 8.05241 81.7491 7.0876C82.7377 6.12279 83.8881 5.37018 85.1955 4.83472C86.5054 4.2968 87.9183 4.02783 89.4293 4.02783C90.5552 4.02783 91.6394 4.18329 92.6868 4.49667C93.7342 4.81005 94.708 5.24927 95.6107 5.81434C96.5134 6.37941 97.2836 7.06292 97.9238 7.86241L95.0735 10.673C94.3548 9.75503 93.511 9.06905 92.5421 8.61008C91.5732 8.15112 90.5356 7.92163 89.4293 7.92163C88.5168 7.92163 87.6632 8.0919 86.8684 8.43489C86.0737 8.77541 85.3844 9.24424 84.8031 9.83892C84.2217 10.4336 83.7655 11.1319 83.4368 11.9314C83.1056 12.7309 82.9413 13.6192 82.9413 14.5939C82.9413 15.5316 83.1105 16.4026 83.4515 17.212C83.79 18.0213 84.2561 18.7246 84.8472 19.3193C85.4384 19.914 86.1375 20.3779 86.942 20.7085C87.7466 21.0416 88.6346 21.207 89.6035 21.207C90.6705 21.207 91.6688 20.9824 92.601 20.5333C93.5331 20.0842 94.3474 19.4402 95.0441 18.6012L97.7791 21.3525C97.1389 22.1323 96.3785 22.8059 95.4954 23.371C94.6124 23.9361 93.6484 24.3704 92.601 24.6739C91.5535 24.9774 90.4963 25.1279 89.4293 25.1279Z" fill="#060709"/>
<path d="M121.548 24.8367V4.34863H126.988L132.544 15.4107L138.132 4.34863H143.514V24.8343H139.557V9.76492L132.488 23.3735L125.448 9.70569V24.8367H121.548Z" fill="#060709"/>
<path d="M147.208 24.8367V4.34863H156.78C158.156 4.34863 159.36 4.58305 160.388 5.05189C161.416 5.52072 162.22 6.17956 162.802 7.0284C163.383 7.87724 163.675 8.85686 163.675 9.96972C163.675 10.8877 163.452 11.7118 163.005 12.4422C162.559 13.1751 161.928 13.7944 161.114 14.3003C162.122 14.7296 162.922 15.349 163.515 16.1583C164.107 16.9677 164.403 17.8807 164.403 18.8949C164.403 20.0842 164.102 21.1231 163.501 22.0114C162.9 22.8997 162.061 23.5906 160.984 24.0891C159.907 24.5875 158.661 24.8343 157.246 24.8343H147.208V24.8367ZM151.427 12.7482H156.52C157.432 12.7482 158.148 12.5236 158.673 12.0745C159.196 11.6255 159.458 11.0308 159.458 10.2905C159.458 9.55024 159.196 8.95803 158.673 8.5188C158.151 8.07958 157.432 7.85996 156.52 7.85996H151.427V12.7482ZM151.427 21.3254H156.927C157.915 21.3254 158.695 21.0861 159.269 20.6074C159.841 20.1286 160.128 19.4895 160.128 18.6901C160.128 17.8906 159.841 17.2465 159.269 16.758C158.698 16.2694 157.915 16.0276 156.927 16.0276H151.427V21.3254Z" fill="#060709"/>
<path d="M177.058 25.1575C175.545 25.1575 174.134 24.8885 172.824 24.3531C171.514 23.8176 170.371 23.065 169.39 22.1002C168.411 21.1354 167.644 20.0127 167.092 18.7345C166.54 17.4563 166.263 16.0769 166.263 14.5939C166.263 13.1109 166.54 11.7315 167.092 10.4533C167.644 9.17515 168.411 8.05241 169.39 7.0876C170.369 6.12279 171.514 5.37018 172.824 4.83472C174.134 4.2968 175.547 4.02783 177.058 4.02783C178.552 4.02783 179.953 4.2968 181.262 4.83225C182.572 5.37018 183.715 6.12032 184.697 7.08513C185.675 8.04995 186.438 9.17268 186.98 10.4509C187.522 11.7291 187.795 13.1084 187.795 14.5914C187.795 16.0744 187.522 17.4538 186.98 18.732C186.438 20.0102 185.675 21.1329 184.697 22.0977C183.718 23.0626 182.572 23.8152 181.262 24.3506C179.955 24.891 178.552 25.1575 177.058 25.1575ZM177.058 21.2662C177.971 21.2662 178.814 21.0959 179.59 20.7529C180.365 20.4124 181.044 19.9436 181.625 19.3489C182.207 18.7542 182.663 18.046 182.992 17.2268C183.32 16.4076 183.487 15.5291 183.487 14.5939C183.487 13.6192 183.323 12.7309 182.992 11.9314C182.661 11.1319 182.207 10.4336 181.625 9.83892C181.044 9.24424 180.365 8.77541 179.59 8.43489C178.814 8.09436 177.98 7.92163 177.088 7.92163C176.155 7.92163 175.299 8.0919 174.512 8.43489C173.727 8.77541 173.043 9.24424 172.461 9.83892C171.88 10.4336 171.424 11.1319 171.095 11.9314C170.764 12.7309 170.599 13.5995 170.599 14.5371C170.599 15.5118 170.764 16.41 171.095 17.2293C171.424 18.0485 171.88 18.7567 172.461 19.3513C173.043 19.946 173.727 20.4149 174.512 20.7554C175.299 21.0959 176.148 21.2662 177.058 21.2662Z" fill="#060709"/>
<path d="M190.674 24.8367V4.34863H198.499C200.032 4.34863 201.448 4.61266 202.748 5.13825C204.048 5.66384 205.181 6.39177 206.152 7.31957C207.121 8.24737 207.884 9.33556 208.436 10.5817C208.988 11.8303 209.265 13.1775 209.265 14.6211C209.265 16.0646 208.993 17.4069 208.451 18.6456C207.909 19.8844 207.146 20.9627 206.167 21.8806C205.188 22.7985 204.048 23.5191 202.748 24.0471C201.448 24.5727 200.032 24.8367 198.499 24.8367H190.674ZM194.893 21.0614H198.443C199.355 21.0614 200.204 20.8961 200.989 20.5629C201.774 20.2323 202.463 19.7733 203.054 19.1885C203.645 18.6037 204.102 17.9251 204.421 17.1552C204.739 16.3854 204.901 15.5415 204.901 14.6235C204.901 13.7253 204.742 12.8814 204.421 12.0918C204.102 11.3022 203.645 10.6088 203.054 10.0141C202.463 9.41946 201.774 8.95556 200.989 8.62491C200.204 8.29425 199.365 8.12646 198.472 8.12646H194.893V21.0614Z" fill="#060709"/>
<path d="M212.145 24.8367V4.34863H216.364V24.8343H212.145V24.8367Z" fill="#060709"/>
<path d="M218.081 24.8367L226.46 4.34863H231.349L239.611 24.8343H235.041L232.975 19.4772H224.537L222.472 24.8343H218.081V24.8367ZM225.85 16.0572H231.697L228.818 8.50646L225.85 16.0572Z" fill="#060709"/>
<path d="M97.9629 24.8367L106.34 4.34863H111.228L119.49 24.8343H114.923L112.857 19.4772H104.419L102.354 24.8343H97.9629V24.8367ZM105.729 16.0572H111.577L108.697 8.50646L105.729 16.0572Z" fill="#060709"/>
<path d="M25.2213 17.582V24.8095C20.1609 27.7434 15.8731 30.6502 12.3237 33.3152V26.3641C15.3433 24.0446 18.4855 21.8509 21.7013 19.7757C21.7406 19.751 21.7774 19.7288 21.8166 19.7041C22.2974 19.3932 22.7806 19.0897 23.2638 18.7862C23.9139 18.3791 24.5663 17.9793 25.2213 17.582Z" fill="#2FC3F1"/>
<path d="M55.655 33.4559L56.9084 38.8105C54.1072 38.4773 51.2102 38.3095 48.3894 38.2553C33.343 38.0159 18.3139 40.7993 3.99854 45.347C2.7132 45.7566 1.43277 46.1786 0.154785 46.6203C2.81132 45.1225 5.49974 43.6888 8.22005 42.3218C16.5797 38.0998 25.3906 34.512 34.3463 31.8026C42.0829 29.4954 50.0426 27.7755 58.0834 27.0575C58.623 27.0106 59.1774 26.9662 59.7342 26.9316C58.2281 29.0636 56.8275 31.2548 55.6476 33.4238L55.6525 33.4509L55.655 33.4559Z" fill="#ED1B26"/>
<path d="M58.8361 47.0646C40.5617 43.4743 16.5082 44.1109 0.127441 47.0646C1.46429 46.6451 2.8036 46.2404 4.14781 45.8506C12.6472 43.3805 21.4533 41.5743 30.2495 40.6144C37.8414 39.8149 45.5313 39.6002 53.133 40.3306C54.5214 40.4713 55.9931 40.6465 57.3888 40.8686L58.8361 47.0646Z" fill="#2FC3F1"/>
<path d="M62.9105 22.6825C62.3537 23.3932 61.7969 24.1137 61.2523 24.8466C61.2278 24.8762 61.2155 24.891 61.2155 24.891C58.1837 25.1106 55.1126 25.5227 52.1249 26.0285C36.669 28.7502 21.8017 34.4651 7.97942 41.8604C5.28364 43.3014 2.61975 44.8091 -0.00244141 46.376C0.821746 45.4581 2.34502 43.8393 4.61154 41.7543C4.61154 41.7518 4.61399 41.7518 4.61644 41.7518C11.8551 35.0869 26.6536 23.6696 50.3196 15.1244C50.5085 15.0529 50.6998 14.9838 50.8911 14.9196C53.5035 13.9819 56.2287 13.0837 59.0619 12.23C63.6071 11.0184 65.7976 11.4502 66.5899 12.7087V12.7111C68.0102 14.9541 64.9734 19.8276 62.9105 22.6825Z" fill="#2FC3F1"/>
<path d="M53.1697 10.1299V12.6073C52.6717 11.4229 52.7036 11.5092 52.4583 10.8998H40.174V17.2685C39.9851 17.3524 39.6466 17.4955 39.4553 17.5819C34.5347 19.7607 30.09 22.0334 26.1113 24.2986V16.965C30.4383 14.4876 34.8953 12.21 39.4553 10.1324H53.1697V10.1299Z" fill="#2FC3F1"/>
</g>
<defs>
<clipPath id="clip0_278_391">
<rect width="239.61" height="49.1389" fill="white" transform="translate(0 4.02783)"/>
</clipPath>
</defs>
</svg>
