<svg width="327" height="67" viewBox="0 0 327 67" fill="none" xmlns="http://www.w3.org/2000/svg">
<g clip-path="url(#clip0_97_1378)">
<path d="M311.253 56.0992C311.23 56.2473 311.213 56.2742 311.196 56.1295C311.176 56.0151 311.153 55.7897 311.069 55.4297C311.126 55.6551 311.19 55.8805 311.253 56.0992Z" fill="white"/>
<path d="M112.666 52.6673V39.1623H107.276V37.6853H119.692V39.1623H114.303V52.6673H112.666Z" fill="white"/>
<path d="M121.694 52.6673V37.6853H128.085C129.065 37.6853 129.916 37.8636 130.639 38.2203C131.362 38.5769 131.928 39.0748 132.333 39.7174C132.738 40.3601 132.939 41.1171 132.939 41.9851C132.939 42.9709 132.651 43.8154 132.075 44.5219C131.499 45.2284 130.729 45.723 129.765 46.009L133.109 52.6673H131.298L128.105 46.2243H123.334V52.6673H121.694ZM123.334 44.8314H127.977C128.985 44.8314 129.792 44.5757 130.394 44.061C130.997 43.5462 131.298 42.8565 131.298 41.9851C131.298 41.1305 130.997 40.4442 130.394 39.9294C129.792 39.4146 128.985 39.1589 127.977 39.1589H123.334V44.8314Z" fill="white"/>
<path d="M134.09 52.6673L140.266 37.6853H142.248L148.381 52.6673H146.593L144.719 47.957H137.692L135.797 52.6673H134.09ZM138.264 46.5439H144.143L141.204 39.2027L138.264 46.5439Z" fill="white"/>
<path d="M150.105 52.6673V37.6853H155.026C156.16 37.6853 157.205 37.8703 158.156 38.2404C159.106 38.6105 159.933 39.132 160.636 39.8016C161.339 40.4711 161.885 41.2651 162.276 42.1769C162.668 43.0886 162.862 44.0879 162.862 45.1746C162.862 46.258 162.671 47.2572 162.287 48.1723C161.902 49.0841 161.359 49.8781 160.656 50.5477C159.953 51.2172 159.123 51.7387 158.166 52.1088C157.208 52.4789 156.16 52.6639 155.026 52.6639H150.105V52.6673ZM151.745 51.1701H155.109C155.976 51.1701 156.776 51.0187 157.516 50.7192C158.253 50.4198 158.902 49.9993 159.454 49.4576C160.007 48.9159 160.439 48.28 160.743 47.5533C161.048 46.8266 161.202 46.0325 161.202 45.178C161.202 44.3234 161.048 43.5294 160.743 42.8027C160.439 42.0759 160.01 41.44 159.454 40.8984C158.902 40.3567 158.256 39.9361 157.516 39.6367C156.776 39.3373 155.976 39.1859 155.109 39.1859H151.745V51.1701Z" fill="white"/>
<path d="M165.44 52.6673V37.6853H176.109V39.1421H167.08V44.3873H172.979V45.8206H167.08V51.2138H176.196V52.6706H165.44V52.6673Z" fill="white"/>
<path d="M183.139 52.6673V37.6853H193.807V39.1421H184.779V44.3873H190.677V45.8206H184.779V51.2138H193.894V52.6706H183.139V52.6673Z" fill="white"/>
<path d="M194.681 52.6673L200.432 44.8987L195.042 37.6853H197.044L201.41 43.637L205.775 37.6853H207.693L202.37 44.8785L208.141 52.6706H206.16L201.389 46.1436L196.599 52.6706H194.681V52.6673Z" fill="white"/>
<path d="M209.631 52.6673V37.6853H216.105C217.086 37.6853 217.933 37.8636 218.649 38.2203C219.366 38.5769 219.925 39.0816 220.32 39.7275C220.718 40.3769 220.916 41.1372 220.916 42.0086C220.916 42.88 220.718 43.6404 220.32 44.2898C219.922 44.9391 219.362 45.4471 218.636 45.8105C217.913 46.1739 217.066 46.3555 216.102 46.3555H211.268V52.6706H209.631V52.6673ZM211.271 44.9189H215.978C216.986 44.9189 217.789 44.6598 218.385 44.1384C218.981 43.6169 219.279 42.9137 219.279 42.0288C219.279 41.144 218.981 40.4442 218.385 39.9328C217.789 39.418 216.986 39.1623 215.978 39.1623H211.271V44.9189Z" fill="white"/>
<path d="M230.396 52.9029C229.318 52.9029 228.314 52.7078 227.383 52.3141C226.453 51.9205 225.636 51.3721 224.933 50.6655C224.23 49.959 223.684 49.1381 223.293 48.2027C222.901 47.2674 222.707 46.2581 222.707 45.1747C222.707 44.0914 222.901 43.082 223.293 42.1467C223.684 41.2114 224.23 40.3904 224.933 39.6839C225.636 38.9774 226.453 38.429 227.383 38.0353C228.314 37.6417 229.318 37.4465 230.396 37.4465C231.461 37.4465 232.458 37.6417 233.389 38.0353C234.319 38.429 235.136 38.9774 235.839 39.6839C236.542 40.3904 237.088 41.2114 237.48 42.1467C237.871 43.082 238.065 44.0914 238.065 45.1747C238.065 46.2581 237.871 47.2674 237.48 48.2027C237.088 49.1381 236.542 49.959 235.839 50.6655C235.136 51.3721 234.319 51.9205 233.389 52.3141C232.458 52.7044 231.461 52.9029 230.396 52.9029ZM230.396 51.3822C231.246 51.3822 232.036 51.224 232.76 50.9111C233.483 50.5982 234.119 50.1575 234.664 49.5956C235.21 49.0304 235.635 48.371 235.943 47.6173C236.248 46.8603 236.402 46.0461 236.402 45.1781C236.402 44.2932 236.248 43.4757 235.943 42.7287C235.638 41.9785 235.21 41.3224 234.664 40.7605C234.119 40.1953 233.483 39.7579 232.76 39.445C232.036 39.1321 231.246 38.974 230.396 38.974C229.546 38.974 228.752 39.1321 228.023 39.445C227.293 39.7579 226.654 40.1987 226.105 40.7605C225.559 41.3258 225.13 41.9818 224.826 42.7287C224.521 43.479 224.367 44.2932 224.367 45.1781C224.367 46.0495 224.521 46.8637 224.826 47.6173C225.13 48.3743 225.556 49.0338 226.105 49.5956C226.65 50.1609 227.29 50.5982 228.023 50.9111C228.752 51.2274 229.543 51.3822 230.396 51.3822Z" fill="white"/>
<path d="M107.276 66.9158V61.6235H107.855V66.9158H107.276Z" fill="white"/>
<path d="M112.117 66.9158V61.6235H112.696L115.863 65.92V61.6235H116.412V66.9158H115.899L112.666 62.5084V66.9158H112.117Z" fill="white"/>
<path d="M122.123 66.9158V62.145H120.218V61.6235H124.603V62.145H122.698V66.9158H122.123Z" fill="white"/>
<path d="M128.413 66.9158V61.6235H132.182V62.1383H128.992V63.9921H131.077V64.5002H128.992V66.4044H132.212V66.9192H128.413V66.9158Z" fill="white"/>
<path d="M136.149 66.9158V61.6235H138.405C138.75 61.6235 139.051 61.6875 139.309 61.8119C139.563 61.9398 139.764 62.1147 139.908 62.3402C140.052 62.5656 140.122 62.8347 140.122 63.1409C140.122 63.4874 140.022 63.7869 139.818 64.0359C139.614 64.2848 139.343 64.4598 139.001 64.5607L140.183 66.9125H139.543L138.415 64.6347H136.731V66.9125H136.149V66.9158ZM136.728 64.1502H138.368C138.723 64.1502 139.008 64.0594 139.222 63.8777C139.436 63.696 139.543 63.4504 139.543 63.1443C139.543 62.8415 139.436 62.5992 139.222 62.4175C139.008 62.2359 138.723 62.145 138.368 62.145H136.728V64.1502Z" fill="white"/>
<path d="M144.099 66.9158V61.6235H144.678L147.845 65.92V61.6235H148.394V66.9158H147.882L144.648 62.5084V66.9158H144.099Z" fill="white"/>
<path d="M152.107 66.9158L154.289 61.6235H154.989L157.155 66.9158H156.522L155.859 65.2538H153.375L152.706 66.9158H152.107ZM153.58 64.7525H155.655L154.617 62.1585L153.58 64.7525Z" fill="white"/>
<path d="M161.376 66.9158V62.145H159.471V61.6235H163.857V62.145H161.952V66.9158H161.376Z" fill="white"/>
<path d="M167.666 66.9158V61.6235H168.245V66.9158H167.666Z" fill="white"/>
<path d="M174.974 66.9999C174.592 66.9999 174.237 66.9292 173.909 66.7913C173.581 66.6534 173.293 66.4582 173.046 66.2092C172.798 65.9603 172.604 65.6709 172.467 65.3412C172.329 65.0115 172.259 64.6549 172.259 64.2713C172.259 63.8878 172.329 63.5311 172.467 63.2014C172.604 62.8717 172.798 62.5823 173.046 62.3334C173.293 62.0844 173.581 61.8893 173.909 61.7513C174.237 61.6134 174.592 61.5427 174.974 61.5427C175.349 61.5427 175.704 61.6134 176.032 61.7513C176.36 61.8893 176.648 62.0844 176.895 62.3334C177.143 62.5823 177.337 62.8717 177.475 63.2014C177.612 63.5311 177.682 63.8878 177.682 64.2713C177.682 64.6549 177.612 65.0115 177.475 65.3412C177.337 65.6709 177.143 65.9603 176.895 66.2092C176.648 66.4582 176.36 66.6534 176.032 66.7913C175.7 66.9292 175.349 66.9999 174.974 66.9999ZM174.974 66.4616C175.275 66.4616 175.553 66.4077 175.807 66.2967C176.062 66.1857 176.286 66.0309 176.48 65.8324C176.674 65.6339 176.825 65.4018 176.932 65.1326C177.039 64.8668 177.093 64.5775 177.093 64.2713C177.093 63.9584 177.039 63.6691 176.932 63.4066C176.825 63.1408 176.674 62.9087 176.48 62.7102C176.286 62.5117 176.062 62.3569 175.807 62.2459C175.553 62.1349 175.272 62.081 174.974 62.081C174.673 62.081 174.395 62.1382 174.134 62.2459C173.876 62.3569 173.648 62.5117 173.457 62.7102C173.263 62.9087 173.113 63.1408 173.006 63.4066C172.898 63.6724 172.845 63.9584 172.845 64.2713C172.845 64.5775 172.898 64.8668 173.006 65.1326C173.113 65.3984 173.263 65.6339 173.457 65.8324C173.652 66.0309 173.876 66.1857 174.134 66.2967C174.391 66.4077 174.673 66.4616 174.974 66.4616Z" fill="white"/>
<path d="M181.692 66.9158V61.6235H182.272L185.438 65.92V61.6235H185.987V66.9158H185.475L182.241 62.5084V66.9158H181.692Z" fill="white"/>
<path d="M189.697 66.9158L191.879 61.6235H192.579L194.745 66.9158H194.112L193.449 65.2538H190.965L190.296 66.9158H189.697ZM191.173 64.7525H193.248L192.211 62.1585L191.173 64.7525Z" fill="white"/>
<path d="M198.457 66.9158V61.6235H199.036V66.3943H202.173V66.9158H198.457Z" fill="white"/>
<path d="M212.269 66.9158V62.145H210.364V61.6235H214.75V62.145H212.845V66.9158H212.269Z" fill="white"/>
<path d="M218.559 66.9158V61.6235H220.815C221.16 61.6235 221.461 61.6875 221.719 61.8119C221.974 61.9398 222.174 62.1147 222.318 62.3402C222.462 62.5656 222.533 62.8347 222.533 63.1409C222.533 63.4874 222.432 63.7869 222.228 64.0359C222.024 64.2848 221.753 64.4598 221.411 64.5607L222.593 66.9125H221.954L220.825 64.6347H219.142V66.9125H218.559V66.9158ZM219.138 64.1502H220.779C221.133 64.1502 221.418 64.0594 221.632 63.8777C221.846 63.696 221.954 63.4504 221.954 63.1443C221.954 62.8415 221.846 62.5992 221.632 62.4175C221.418 62.2359 221.133 62.145 220.779 62.145H219.138V64.1502Z" fill="white"/>
<path d="M226.038 66.9158L228.22 61.6235H228.92L231.086 66.9158H230.453L229.79 65.2538H227.306L226.637 66.9158H226.038ZM227.514 64.7525H229.589L228.552 62.1585L227.514 64.7525Z" fill="white"/>
<path d="M234.798 66.9158V61.6235H236.535C236.937 61.6235 237.305 61.6908 237.64 61.8187C237.975 61.9499 238.27 62.1349 238.517 62.3704C238.765 62.606 238.959 62.8886 239.096 63.2116C239.234 63.5346 239.304 63.8878 239.304 64.2714C239.304 64.6549 239.237 65.0082 239.1 65.3312C238.966 65.6542 238.772 65.9334 238.524 66.1723C238.276 66.4078 237.982 66.5929 237.644 66.7241C237.305 66.8553 236.934 66.9192 236.532 66.9192H234.798V66.9158ZM235.377 66.3876H236.566C236.87 66.3876 237.155 66.3338 237.416 66.2295C237.677 66.1252 237.905 65.9738 238.102 65.782C238.296 65.5902 238.45 65.3648 238.557 65.1091C238.665 64.8534 238.718 64.5708 238.718 64.2714C238.718 63.9686 238.665 63.6893 238.557 63.4303C238.45 63.1746 238.296 62.9491 238.102 62.7574C237.908 62.5656 237.677 62.4175 237.416 62.3099C237.155 62.2056 236.87 62.1518 236.566 62.1518H235.377V66.3876Z" fill="white"/>
<path d="M243.314 66.9158V61.6235H247.084V62.1383H243.894V63.9921H245.979V64.5002H243.894V66.4044H247.114V66.9192H243.314V66.9158Z" fill="white"/>
<path d="M255.767 66.9158V61.6235H259.537V62.1383H256.346V63.9921H258.432V64.5002H256.346V66.4044H259.567V66.9192H255.767V66.9158Z" fill="white"/>
<path d="M262.945 66.9158L264.977 64.1704L263.072 61.6235H263.778L265.321 63.7263L266.865 61.6235H267.541L265.659 64.1637L267.698 66.9158H266.998L265.315 64.6078L263.621 66.9158H262.945Z" fill="white"/>
<path d="M271.327 66.9158V61.6235H273.613C273.958 61.6235 274.259 61.6875 274.514 61.8119C274.768 61.9398 274.962 62.1147 275.103 62.3435C275.244 62.5723 275.314 62.8415 275.314 63.1476C275.314 63.4538 275.244 63.723 275.103 63.9517C274.962 64.1805 274.765 64.3588 274.507 64.4901C274.253 64.6179 273.951 64.6818 273.613 64.6818H271.906V66.9125H271.327V66.9158ZM271.906 64.1772H273.57C273.925 64.1772 274.209 64.0863 274.42 63.9013C274.631 63.7162 274.735 63.4706 274.735 63.1577C274.735 62.8448 274.631 62.5992 274.42 62.4175C274.209 62.2359 273.925 62.145 273.57 62.145H271.906V64.1772Z" fill="white"/>
<path d="M281.764 66.9999C281.383 66.9999 281.028 66.9292 280.7 66.7913C280.372 66.6534 280.084 66.4582 279.836 66.2092C279.589 65.9603 279.394 65.6709 279.257 65.3412C279.12 65.0115 279.05 64.6549 279.05 64.2713C279.05 63.8878 279.12 63.5311 279.257 63.2014C279.394 62.8717 279.589 62.5823 279.836 62.3334C280.084 62.0844 280.372 61.8893 280.7 61.7513C281.028 61.6134 281.383 61.5427 281.764 61.5427C282.139 61.5427 282.494 61.6134 282.822 61.7513C283.15 61.8893 283.438 62.0844 283.686 62.3334C283.934 62.5823 284.128 62.8717 284.265 63.2014C284.402 63.5311 284.473 63.8878 284.473 64.2713C284.473 64.6549 284.402 65.0115 284.265 65.3412C284.128 65.6709 283.934 65.9603 283.686 66.2092C283.438 66.4582 283.15 66.6534 282.822 66.7913C282.491 66.9292 282.139 66.9999 281.764 66.9999ZM281.764 66.4616C282.066 66.4616 282.344 66.4077 282.598 66.2967C282.852 66.1857 283.077 66.0309 283.271 65.8324C283.465 65.6339 283.616 65.4018 283.723 65.1326C283.83 64.8668 283.883 64.5775 283.883 64.2713C283.883 63.9584 283.83 63.6691 283.723 63.4066C283.616 63.1408 283.465 62.9087 283.271 62.7102C283.077 62.5117 282.852 62.3569 282.598 62.2459C282.344 62.1349 282.062 62.081 281.764 62.081C281.463 62.081 281.185 62.1382 280.924 62.2459C280.666 62.3569 280.439 62.5117 280.248 62.7102C280.054 62.9087 279.903 63.1408 279.796 63.4066C279.689 63.6724 279.635 63.9584 279.635 64.2713C279.635 64.5775 279.689 64.8668 279.796 65.1326C279.903 65.3984 280.054 65.6339 280.248 65.8324C280.442 66.0309 280.666 66.1857 280.924 66.2967C281.182 66.4077 281.463 66.4616 281.764 66.4616Z" fill="white"/>
<path d="M290.19 66.9931C289.775 66.9931 289.373 66.909 288.995 66.7408C288.617 66.5726 288.279 66.327 287.988 66.0107L288.373 65.6103C288.644 65.903 288.932 66.1217 289.243 66.2698C289.551 66.4144 289.876 66.4885 290.217 66.4885C290.492 66.4885 290.736 66.4447 290.95 66.3572C291.164 66.2698 291.332 66.1453 291.449 65.9872C291.569 65.829 291.63 65.6473 291.63 65.4455C291.63 65.173 291.536 64.9644 291.349 64.8163C291.161 64.6716 290.85 64.5606 290.418 64.49L289.658 64.3688C289.153 64.2847 288.778 64.1333 288.537 63.9146C288.296 63.6993 288.175 63.4032 288.175 63.0298C288.175 62.7371 288.252 62.4814 288.409 62.2593C288.563 62.0373 288.781 61.8657 289.059 61.7412C289.337 61.6167 289.658 61.5562 290.026 61.5562C290.398 61.5562 290.763 61.6167 291.121 61.7378C291.479 61.859 291.807 62.0339 292.102 62.2593L291.77 62.7135C291.195 62.2761 290.605 62.0541 290.003 62.0541C289.752 62.0541 289.531 62.0945 289.34 62.1718C289.149 62.2492 289.002 62.3569 288.895 62.4982C288.791 62.6361 288.737 62.801 288.737 62.9861C288.737 63.2317 288.821 63.4234 288.985 63.5546C289.149 63.6859 289.424 63.7801 289.805 63.8406L290.558 63.9617C291.134 64.0593 291.553 64.2208 291.814 64.4496C292.075 64.6784 292.205 65.0014 292.205 65.4152C292.205 65.7214 292.122 65.9972 291.951 66.2361C291.78 66.475 291.543 66.6634 291.241 66.7946C290.937 66.9258 290.585 66.9931 290.19 66.9931Z" fill="white"/>
<path d="M296.095 66.9158V61.6235H296.675V66.9158H296.095Z" fill="white"/>
<path d="M302.385 66.9158V62.145H300.481V61.6235H304.866V62.145H302.961V66.9158H302.385Z" fill="white"/>
<path d="M308.679 66.9158V61.6235H309.258V66.9158H308.679Z" fill="white"/>
<path d="M315.983 66.9999C315.602 66.9999 315.247 66.9292 314.919 66.7913C314.591 66.6534 314.303 66.4582 314.055 66.2092C313.807 65.9603 313.613 65.6709 313.476 65.3412C313.339 65.0115 313.268 64.6549 313.268 64.2713C313.268 63.8878 313.339 63.5311 313.476 63.2014C313.613 62.8717 313.807 62.5823 314.055 62.3334C314.303 62.0844 314.591 61.8893 314.919 61.7513C315.247 61.6134 315.602 61.5427 315.983 61.5427C316.358 61.5427 316.713 61.6134 317.041 61.7513C317.369 61.8893 317.657 62.0844 317.908 62.3334C318.156 62.5823 318.35 62.8717 318.487 63.2014C318.624 63.5311 318.695 63.8878 318.695 64.2713C318.695 64.6549 318.624 65.0115 318.487 65.3412C318.35 65.6709 318.156 65.9603 317.908 66.2092C317.66 66.4582 317.372 66.6534 317.041 66.7913C316.713 66.9292 316.358 66.9999 315.983 66.9999ZM315.983 66.4616C316.284 66.4616 316.562 66.4077 316.817 66.2967C317.071 66.1857 317.295 66.0309 317.49 65.8324C317.684 65.6339 317.834 65.4018 317.942 65.1326C318.049 64.8668 318.102 64.5775 318.102 64.2713C318.102 63.9584 318.049 63.6691 317.942 63.4066C317.834 63.1408 317.684 62.9087 317.49 62.7102C317.295 62.5117 317.071 62.3569 316.817 62.2459C316.562 62.1349 316.281 62.081 315.983 62.081C315.682 62.081 315.404 62.1382 315.143 62.2459C314.885 62.3569 314.658 62.5117 314.467 62.7102C314.273 62.9087 314.122 63.1408 314.015 63.4066C313.908 63.6724 313.854 63.9584 313.854 64.2713C313.854 64.5775 313.908 64.8668 314.015 65.1326C314.122 65.3984 314.273 65.6339 314.467 65.8324C314.661 66.0309 314.885 66.1857 315.143 66.2967C315.404 66.4077 315.682 66.4616 315.983 66.4616Z" fill="white"/>
<path d="M322.702 66.9158V61.6235H323.281L326.448 65.92V61.6235H326.997V66.9158H326.485L323.251 62.5084V66.9158H322.702Z" fill="white"/>
<path d="M122.046 28.7696C119.98 28.7696 118.049 28.4028 116.248 27.6727C114.447 26.9427 112.88 25.9232 111.544 24.6212C110.209 23.3191 109.161 21.795 108.408 20.0522C107.654 18.3094 107.276 16.4287 107.276 14.4066C107.276 12.3846 107.654 10.5039 108.408 8.76107C109.161 7.01828 110.215 5.48745 111.564 4.17194C112.913 2.85643 114.483 1.83027 116.268 1.10018C118.055 0.366727 119.983 0 122.046 0C123.582 0 125.062 0.211961 126.491 0.639249C127.921 1.06654 129.25 1.66541 130.481 2.43587C131.713 3.20634 132.764 4.13829 133.638 5.22838L129.748 9.06051C128.767 7.80893 127.616 6.87361 126.294 6.24782C124.971 5.62203 123.555 5.30913 122.046 5.30913C120.8 5.30913 119.635 5.54128 118.551 6.00894C117.466 6.47324 116.525 7.11248 115.732 7.92332C114.939 8.73416 114.316 9.6863 113.867 10.7764C113.416 11.8665 113.191 13.0777 113.191 14.4066C113.191 15.6851 113.422 16.8728 113.888 17.9763C114.35 19.0799 114.986 20.0388 115.792 20.8496C116.599 21.6604 117.553 22.293 118.651 22.7438C119.749 23.198 120.961 23.4234 122.283 23.4234C123.739 23.4234 125.102 23.1173 126.374 22.5049C127.646 21.8926 128.757 21.0145 129.708 19.8705L133.441 23.6219C132.567 24.6851 131.529 25.6036 130.324 26.3741C129.119 27.1445 127.803 27.7367 126.374 28.1505C124.945 28.5643 123.502 28.7696 122.046 28.7696Z" fill="white"/>
<path d="M165.879 28.3727V0.4375H173.304L180.886 15.5204L188.512 0.4375H195.856V28.3693H190.456V7.82251L180.809 26.3775L171.201 7.74176V28.3727H165.879Z" fill="white"/>
<path d="M200.897 28.3727V0.4375H213.96C215.838 0.4375 217.481 0.757124 218.884 1.39637C220.287 2.03562 221.385 2.93393 222.178 4.09131C222.971 5.24869 223.37 6.58438 223.37 8.10176C223.37 9.35334 223.065 10.4771 222.456 11.473C221.847 12.4722 220.986 13.3167 219.875 14.0064C221.251 14.5918 222.342 15.4363 223.152 16.5398C223.959 17.6434 224.364 18.8882 224.364 20.271C224.364 21.8927 223.952 23.3091 223.132 24.5204C222.312 25.7316 221.167 26.6736 219.697 27.3532C218.228 28.0329 216.527 28.3693 214.596 28.3693H200.897V28.3727ZM206.655 11.8901H213.605C214.85 11.8901 215.828 11.584 216.544 10.9716C217.257 10.3593 217.615 9.54848 217.615 8.53914C217.615 7.5298 217.257 6.72233 216.544 6.12345C215.831 5.52458 214.85 5.22514 213.605 5.22514H206.655V11.8901ZM206.655 23.585H214.161C215.51 23.585 216.574 23.2587 217.357 22.606C218.137 21.9533 218.529 21.0819 218.529 19.9918C218.529 18.9017 218.137 18.0236 217.357 17.3574C216.577 16.6912 215.51 16.3615 214.161 16.3615H206.655V23.585Z" fill="white"/>
<path d="M241.634 28.8099C239.569 28.8099 237.644 28.4432 235.856 27.7131C234.069 26.983 232.509 25.9569 231.17 24.6414C229.834 23.3259 228.786 21.795 228.033 20.0522C227.28 18.3094 226.901 16.4287 226.901 14.4066C226.901 12.3846 227.28 10.5039 228.033 8.76107C228.786 7.01828 229.834 5.48745 231.17 4.17194C232.505 2.85643 234.069 1.83027 235.856 1.10018C237.644 0.366727 239.572 0 241.634 0C243.673 0 245.584 0.366727 247.372 1.09682C249.159 1.83027 250.719 2.85307 252.058 4.16858C253.394 5.48408 254.435 7.01491 255.175 8.75771C255.915 10.5005 256.286 12.3812 256.286 14.4033C256.286 16.4253 255.915 18.3061 255.175 20.0489C254.435 21.7917 253.394 23.3225 252.058 24.638C250.723 25.9535 249.159 26.9797 247.372 27.7098C245.587 28.4466 243.673 28.8099 241.634 28.8099ZM241.634 23.5042C242.879 23.5042 244.031 23.272 245.089 22.8044C246.147 22.3401 247.074 21.7008 247.867 20.89C248.661 20.0791 249.283 19.1135 249.732 17.9965C250.18 16.8795 250.408 15.6818 250.408 14.4066C250.408 13.0777 250.184 11.8665 249.732 10.7764C249.28 9.6863 248.661 8.73416 247.867 7.92332C247.074 7.11248 246.147 6.47324 245.089 6.00894C244.031 5.54464 242.893 5.30913 241.674 5.30913C240.402 5.30913 239.234 5.54128 238.159 6.00894C237.088 6.47324 236.154 7.11248 235.361 7.92332C234.567 8.73416 233.945 9.6863 233.496 10.7764C233.044 11.8665 232.82 13.0508 232.82 14.3293C232.82 15.6582 233.044 16.8829 233.496 17.9999C233.945 19.1169 234.567 20.0825 235.361 20.8933C236.154 21.7042 237.088 22.3434 238.159 22.8077C239.234 23.272 240.392 23.5042 241.634 23.5042Z" fill="white"/>
<path d="M260.216 28.3727V0.4375H270.895C272.987 0.4375 274.919 0.797498 276.693 1.51413C278.467 2.23076 280.014 3.22328 281.339 4.48832C282.662 5.75336 283.703 7.23709 284.456 8.93614C285.209 10.6386 285.587 12.4756 285.587 14.4438C285.587 16.412 285.216 18.2423 284.476 19.9312C283.736 21.6202 282.695 23.0905 281.36 24.342C280.024 25.5936 278.467 26.576 276.693 27.296C274.919 28.0127 272.987 28.3727 270.895 28.3727H260.216ZM265.974 23.225H270.818C272.063 23.225 273.222 22.9996 274.293 22.5454C275.364 22.0946 276.305 21.4688 277.111 20.6714C277.918 19.874 278.541 18.9488 278.976 17.8991C279.411 16.8494 279.632 15.6987 279.632 14.4471C279.632 13.2225 279.415 12.0718 278.976 10.9952C278.541 9.91857 277.918 8.97315 277.111 8.16232C276.305 7.35148 275.364 6.71896 274.293 6.26812C273.222 5.81728 272.077 5.5885 270.858 5.5885H265.974V23.225Z" fill="white"/>
<path d="M289.517 28.3727V0.4375H295.275V28.3693H289.517V28.3727Z" fill="white"/>
<path d="M297.619 28.3727L309.054 0.4375H315.726L327 28.3693H320.764L317.945 21.0651H306.429L303.611 28.3693H297.619V28.3727ZM308.22 16.4019H316.201L312.271 6.10663L308.22 16.4019Z" fill="white"/>
<path d="M133.692 28.3727L145.124 0.4375H151.795L163.07 28.3693H156.837L154.018 21.0651H142.502L139.684 28.3693H133.692V28.3727ZM144.29 16.4019H152.271L148.341 6.10663L144.29 16.4019Z" fill="white"/>
<path d="M34.4198 18.481V28.3355C27.5138 32.3358 21.6623 36.2992 16.8184 39.9328V30.4551C20.9392 27.2925 25.2274 24.3015 29.6161 21.472C29.6697 21.4383 29.7199 21.408 29.7734 21.3744C30.4296 20.9505 31.089 20.5366 31.7485 20.1228C32.6356 19.5677 33.526 19.0226 34.4198 18.481Z" fill="white"/>
<path d="M75.9531 40.1247L77.6637 47.4256C73.8408 46.9713 69.8874 46.7426 66.0377 46.6685C45.5037 46.3422 24.9932 50.1373 5.45681 56.338C3.70269 56.8965 1.95526 57.4718 0.211182 58.0741C3.83659 56.0319 7.50552 54.0771 11.218 52.2132C22.6265 46.4566 34.6509 41.5646 46.8729 37.8705C57.4311 34.7247 68.2939 32.3797 79.2672 31.4006C80.0037 31.3367 80.7602 31.2761 81.5201 31.229C79.4647 34.1359 77.5533 37.1235 75.9431 40.0809L75.9498 40.1179L75.9531 40.1247Z" fill="white"/>
<path d="M80.2949 58.6796C55.3555 53.7843 22.5293 54.6523 0.174316 58.6796C1.99874 58.1076 3.82651 57.5559 5.66097 57.0243C17.2603 53.6564 29.278 51.1936 41.2824 49.8849C51.6431 48.7948 62.1377 48.5021 72.5118 49.498C74.4065 49.6897 76.4151 49.9286 78.3198 50.2314L80.2949 58.6796Z" fill="white"/>
<path d="M85.8551 25.4354C85.0952 26.4043 84.3353 27.3868 83.5922 28.386C83.5587 28.4264 83.5419 28.4466 83.5419 28.4466C79.4044 28.746 75.2132 29.3079 71.1359 29.9976C50.0429 33.7086 29.7533 41.5007 10.8898 51.584C7.21082 53.5489 3.57537 55.6045 -0.00317383 57.741C1.12161 56.4894 3.20044 54.2823 6.29359 51.4393C6.29359 51.436 6.29694 51.436 6.30029 51.436C16.1789 42.3485 36.3748 26.7812 68.6721 15.13C68.9298 15.0324 69.1909 14.9382 69.4521 14.8508C73.0172 13.5723 76.7364 12.3476 80.6028 11.1835C86.8058 9.53154 89.7952 10.1203 90.8765 11.8362V11.8396C92.8147 14.8979 88.6704 21.5427 85.8551 25.4354Z" fill="white"/>
<path d="M72.562 8.32031V11.6982C71.8824 10.0833 71.9259 10.2011 71.5912 9.37003H54.8266V18.0537C54.5688 18.1681 54.1069 18.3632 53.8458 18.481C47.1305 21.4518 41.0648 24.5505 35.635 27.6391V17.6399C41.5401 14.262 47.6226 11.1566 53.8458 8.32368H72.562V8.32031Z" fill="white"/>
</g>
<defs>
<clipPath id="clip0_97_1378">
<rect width="327" height="67" fill="white"/>
</clipPath>
</defs>
</svg>
