<svg width="236" height="54" viewBox="0 0 236 54" fill="none" xmlns="http://www.w3.org/2000/svg">
<g clip-path="url(#clip0_221_8223)">
<path d="M61.436 13.9825C61.436 7.90575 66.1978 3.56055 72.6019 3.56055C76.1585 3.56055 79.1272 4.82775 81.0635 7.13175L78.0066 9.89655C76.6251 8.34135 74.8909 7.53495 72.8333 7.53495C68.9828 7.53495 66.2492 10.1845 66.2492 13.9861C66.2492 17.7877 68.9828 20.4373 72.8333 20.4373C74.8909 20.4373 76.6251 19.6309 78.0066 18.0469L81.0635 20.8117C79.1235 23.1445 76.1548 24.4117 72.5725 24.4117C66.1941 24.4081 61.436 20.0593 61.436 13.9825Z" fill="white"/>
<path d="M125.088 24.0626L125.058 11.9702L119.007 21.9314H116.861L110.835 12.2295V24.0626H106.368V3.90625H110.306L118.007 16.4306L125.587 3.90625H129.497L129.555 24.0626H125.088Z" fill="white"/>
<path d="M153.302 18.5618C153.302 22.0466 150.48 24.0626 145.075 24.0626H134.438V3.90625H144.487C149.631 3.90625 152.277 6.00865 152.277 9.14785C152.277 11.1638 151.218 12.719 149.543 13.583C151.832 14.2994 153.302 16.0274 153.302 18.5618ZM139.167 7.41985V12.1719H143.899C146.221 12.1719 147.485 11.3654 147.485 9.78145C147.485 8.19745 146.221 7.41985 143.899 7.41985H139.167ZM148.51 18.0722C148.51 16.373 147.188 15.5666 144.719 15.5666H139.163V20.5491H144.719C147.188 20.5491 148.51 19.8002 148.51 18.0722Z" fill="white"/>
<path d="M155.624 13.9825C155.624 7.99215 160.385 3.56055 166.878 3.56055C173.344 3.56055 178.132 7.96695 178.132 13.9825C178.132 20.0017 173.341 24.4045 166.878 24.4045C160.385 24.4081 155.624 19.9729 155.624 13.9825ZM173.315 13.9825C173.315 10.1521 170.552 7.53135 166.878 7.53135C163.203 7.53135 160.441 10.1521 160.441 13.9825C160.441 17.8129 163.203 20.4337 166.878 20.4337C170.552 20.4337 173.315 17.8129 173.315 13.9825Z" fill="white"/>
<path d="M181.721 3.90625H191.065C197.796 3.90625 202.407 7.88065 202.407 13.9827C202.407 20.0883 197.792 24.0591 191.065 24.0591H181.721V3.90625ZM190.83 20.2323C194.915 20.2323 197.59 17.8419 197.59 13.9827C197.59 10.1235 194.915 7.73305 190.83 7.73305H186.48V20.2323H190.83Z" fill="white"/>
<path d="M205.993 3.90625H210.755V24.0626H205.993V3.90625Z" fill="white"/>
<path d="M229.181 19.7426H219.632L217.809 24.0626H212.93L222.097 3.90625H226.8L235.996 24.0626H231L229.181 19.7426ZM227.682 16.2002L224.419 8.48545L221.16 16.2002H227.682Z" fill="white"/>
<path d="M61.436 46.6057H61.7594V49.5901H61.436V46.6057Z" fill="white"/>
<path d="M68.5383 46.6057V49.5901H68.2737L66.3154 47.1673V49.5901H65.9921V46.6057H66.2566L68.2186 49.0285V46.6057H68.5383Z" fill="white"/>
<path d="M73.3624 46.8793H72.2932V46.6057H74.7586V46.8793H73.6894V49.5901H73.3661V46.8793H73.3624Z" fill="white"/>
<path d="M80.6667 49.3202V49.5938H78.5137V46.6094H80.6043V46.883H78.837V47.945H80.4132V48.215H78.837V49.3202H80.6667Z" fill="white"/>
<path d="M86.7438 49.5938L86.0457 48.6326C85.9685 48.6398 85.8877 48.647 85.8032 48.647H84.9839V49.5938H84.6605V46.6094H85.7995C86.5748 46.6094 87.0451 46.9946 87.0451 47.6318C87.0451 48.0998 86.7915 48.431 86.347 48.5714L87.0928 49.5938H86.7438ZM86.7254 47.6318C86.7254 47.153 86.4021 46.8794 85.7922 46.8794H84.9839V48.377H85.7922C86.4058 48.377 86.7254 48.0998 86.7254 47.6318Z" fill="white"/>
<path d="M93.5998 46.6057V49.5901H93.3353L91.3769 47.1673V49.5901H91.0536V46.6057H91.3181L93.2801 49.0285V46.6057H93.5998Z" fill="white"/>
<path d="M99.743 48.7946H98.0455L97.6781 49.5938H97.3438L98.7363 46.6094H99.0522L100.445 49.5938H100.107L99.743 48.7946ZM99.6254 48.539L98.8943 46.937L98.1631 48.539H99.6254Z" fill="white"/>
<path d="M104.633 46.8793H103.564V46.6057H106.03V46.8793H104.96V49.5901H104.637V46.8793H104.633Z" fill="white"/>
<path d="M109.781 46.6057H110.104V49.5901H109.781V46.6057Z" fill="white"/>
<path d="M114.069 48.0998C114.069 47.2286 114.748 46.5806 115.671 46.5806C116.586 46.5806 117.269 47.225 117.269 48.0998C117.269 48.9746 116.586 49.619 115.671 49.619C114.748 49.619 114.069 48.971 114.069 48.0998ZM116.946 48.0998C116.946 47.387 116.402 46.8614 115.671 46.8614C114.936 46.8614 114.388 47.387 114.388 48.0998C114.388 48.8126 114.936 49.3382 115.671 49.3382C116.402 49.3346 116.946 48.8126 116.946 48.0998Z" fill="white"/>
<path d="M123.776 46.6057V49.5901H123.511L121.553 47.1673V49.5901H121.23V46.6057H121.494L123.456 49.0285V46.6057H123.776Z" fill="white"/>
<path d="M129.923 48.7946H128.225L127.858 49.5938H127.524L128.916 46.6094H129.232L130.625 49.5938H130.287L129.923 48.7946ZM129.805 48.539L129.074 46.937L128.343 48.539H129.805Z" fill="white"/>
<path d="M134.372 46.6057H134.696V49.3201H136.4V49.5937H134.372V46.6057Z" fill="white"/>
<path d="M145.152 46.8793H144.083V46.6057H146.548V46.8793H145.479V49.5901H145.156V46.8793H145.152Z" fill="white"/>
<path d="M152.379 49.5938L151.681 48.6326C151.604 48.6398 151.523 48.647 151.439 48.647H150.619V49.5938H150.296V46.6094H151.435C152.21 46.6094 152.681 46.9946 152.681 47.6318C152.681 48.0998 152.427 48.431 151.983 48.5714L152.728 49.5938H152.379ZM152.365 47.6318C152.365 47.153 152.041 46.8794 151.431 46.8794H150.623V48.377H151.431C152.041 48.377 152.365 48.0998 152.365 47.6318Z" fill="white"/>
<path d="M158.6 48.7946H156.902L156.535 49.5938H156.201L157.593 46.6094H157.909L159.302 49.5938H158.964L158.6 48.7946ZM158.482 48.539L157.751 46.937L157.02 48.539H158.482Z" fill="white"/>
<path d="M163.049 46.6057H164.291C165.265 46.6057 165.922 47.2213 165.922 48.0997C165.922 48.9781 165.265 49.5937 164.291 49.5937H163.049V46.6057ZM164.273 49.3201C165.081 49.3201 165.606 48.8161 165.606 48.0997C165.606 47.3833 165.085 46.8793 164.273 46.8793H163.373V49.3201H164.273Z" fill="white"/>
<path d="M172.04 49.3202V49.5938H169.887V46.6094H171.977V46.883H170.21V47.945H171.786V48.215H170.21V49.3202H172.04Z" fill="white"/>
<path d="M182.578 49.3202V49.5938H180.424V46.6094H182.515V46.883H180.748V47.945H182.324V48.215H180.748V49.3202H182.578Z" fill="white"/>
<path d="M188.449 49.5938L187.464 48.2798L186.483 49.5938H186.112L187.269 48.0602L186.186 46.6094H186.557L187.475 47.8298L188.39 46.6094H188.739L187.659 48.0494L188.82 49.5938H188.449Z" fill="white"/>
<path d="M194.915 47.6318C194.915 48.269 194.445 48.6506 193.67 48.6506H192.85V49.5938H192.527V46.6094H193.666C194.445 46.6058 194.915 46.991 194.915 47.6318ZM194.592 47.6318C194.592 47.153 194.269 46.8794 193.659 46.8794H192.85V48.3734H193.659C194.269 48.3734 194.592 48.0998 194.592 47.6318Z" fill="white"/>
<path d="M198.626 48.0998C198.626 47.2286 199.306 46.5806 200.228 46.5806C201.143 46.5806 201.826 47.225 201.826 48.0998C201.826 48.9746 201.143 49.619 200.228 49.619C199.306 49.619 198.626 48.971 198.626 48.0998ZM201.503 48.0998C201.503 47.387 200.959 46.8614 200.228 46.8614C199.493 46.8614 198.946 47.387 198.946 48.0998C198.946 48.8126 199.493 49.3382 200.228 49.3382C200.959 49.3346 201.503 48.8126 201.503 48.0998Z" fill="white"/>
<path d="M205.497 49.2302L205.622 48.9854C205.839 49.1942 206.228 49.349 206.629 49.349C207.198 49.349 207.448 49.115 207.448 48.8198C207.448 48.0026 205.57 48.503 205.57 47.3978C205.57 46.9586 205.919 46.5806 206.695 46.5806C207.04 46.5806 207.397 46.6778 207.639 46.8434L207.529 47.0954C207.268 46.9298 206.963 46.847 206.695 46.847C206.136 46.847 205.89 47.0918 205.89 47.387C205.89 48.2042 207.768 47.711 207.768 48.7982C207.768 49.2374 207.411 49.6118 206.632 49.6118C206.173 49.619 205.725 49.4606 205.497 49.2302Z" fill="white"/>
<path d="M211.706 46.6057H212.03V49.5901H211.706V46.6057Z" fill="white"/>
<path d="M216.854 46.8793H215.785V46.6057H218.246V46.8793H217.177V49.5901H216.854V46.8793Z" fill="white"/>
<path d="M222.001 46.6057H222.325V49.5901H222.001V46.6057Z" fill="white"/>
<path d="M226.289 48.0998C226.289 47.2286 226.969 46.5806 227.891 46.5806C228.806 46.5806 229.489 47.225 229.489 48.0998C229.489 48.9746 228.806 49.619 227.891 49.619C226.969 49.619 226.289 48.971 226.289 48.0998ZM229.166 48.0998C229.166 47.387 228.622 46.8614 227.891 46.8614C227.156 46.8614 226.609 47.387 226.609 48.0998C226.609 48.8126 227.156 49.3382 227.891 49.3382C228.622 49.3346 229.166 48.8126 229.166 48.0998Z" fill="white"/>
<path d="M236 46.6057V49.5901H235.736L233.777 47.1673V49.5901H233.454V46.6057H233.718L235.68 49.0285V46.6057H236Z" fill="white"/>
<path d="M64.6289 31.7738H61.436V31.2014H68.4721V31.7738H65.2792V39.8954H64.6326V31.7738H64.6289Z" fill="white"/>
<path d="M76.8602 39.8954L74.7439 36.9902C74.4646 37.0262 74.1854 37.0514 73.8805 37.0514H71.3453V39.8954H70.6986V31.2014H73.8805C76.1107 31.2014 77.4554 32.2958 77.4554 34.1318C77.4554 35.5106 76.6949 36.4682 75.3758 36.8534L77.595 39.8954H76.8602ZM73.8805 36.4934C75.78 36.4934 76.7941 35.6258 76.7941 34.1354C76.7941 32.6342 75.78 31.7774 73.8805 31.7774H71.3453V36.497H73.8805V36.4934Z" fill="white"/>
<path d="M85.9502 37.4508H80.8026L79.6747 39.8988H78.9766L83.0586 31.2048H83.7052L87.7872 39.8988H87.0892L85.9502 37.4508ZM85.7077 36.9144L83.3746 31.896L81.0562 36.9144H85.7077Z" fill="white"/>
<path d="M90.0286 31.2014H93.5411C96.3555 31.2014 98.2551 33.0158 98.2551 35.5466C98.2551 38.0774 96.3555 39.8918 93.5411 39.8918H90.0286V31.2014ZM93.4896 39.3266C95.9991 39.3266 97.6084 37.7606 97.6084 35.5502C97.6084 33.3398 95.9991 31.7738 93.4896 31.7738H90.6752V39.3266H93.4896Z" fill="white"/>
<path d="M107.257 39.3266V39.899H101.136V31.2014H107.069V31.7738H101.782V35.201H106.511V35.759H101.782V39.323H107.257V39.3266Z" fill="white"/>
<path d="M120.844 38.2826V39.8954H113.973V31.2014H120.679V32.8142H116.012V34.7006H120.131V36.2666H116.012V38.279H120.844V38.2826Z" fill="white"/>
<path d="M128.615 39.8954L126.473 36.8786L124.367 39.8954H122.009L125.29 35.4746L122.17 31.2014H124.503L126.542 34.0202L128.545 31.2014H130.764L127.67 35.399L130.977 39.8954H128.615Z" fill="white"/>
<path d="M140.122 34.3586C140.122 36.2954 138.638 37.5014 136.268 37.5014H134.482V39.899H132.429V31.2014H136.268C138.638 31.2014 140.122 32.4074 140.122 34.3586ZM138.043 34.3586C138.043 33.401 137.411 32.843 136.154 32.843H134.482V35.8598H136.154C137.411 35.8598 138.043 35.3018 138.043 34.3586Z" fill="white"/>
<path d="M141.783 35.5501C141.783 32.9653 143.837 31.0537 146.637 31.0537C149.425 31.0537 151.49 32.9545 151.49 35.5501C151.49 38.1457 149.425 40.0465 146.637 40.0465C143.837 40.0465 141.783 38.1313 141.783 35.5501ZM149.414 35.5501C149.414 33.8977 148.224 32.7673 146.637 32.7673C145.053 32.7673 143.859 33.8977 143.859 35.5501C143.859 37.2025 145.049 38.3329 146.637 38.3329C148.224 38.3329 149.414 37.2025 149.414 35.5501Z" fill="white"/>
<path d="M89.099 1.99805C89.099 1.99805 95.3525 4.98245 96.4841 14.9544C96.4841 14.9544 91.2411 16.0848 85.6416 20.0628C85.6453 20.0592 91.1161 12.3948 89.099 1.99805Z" fill="white"/>
<path d="M79.5571 25.9705C79.5571 25.9705 92.8797 14.9437 102.932 15.5701C102.932 15.5701 101.422 16.9633 100.162 21.6181C100.158 21.6181 91.219 19.9513 79.5571 25.9705Z" fill="white"/>
<path d="M79.5571 25.9705C79.5571 25.9705 94.0775 16.5061 103.99 18.2521C103.99 18.2521 102.33 19.4689 100.533 23.9509C100.533 23.9473 91.8436 21.2941 79.5571 25.9705Z" fill="white"/>
<path d="M21.494 0C21.494 0 35.5771 6.7248 38.1343 29.1852C38.1343 29.1852 26.3255 31.7304 13.712 40.6872C13.712 40.6872 26.0352 23.4252 21.494 0Z" fill="white"/>
<path d="M0 54C0 54 30.0107 29.1636 52.651 30.5748C52.651 30.5748 49.2524 33.7104 46.4086 44.1972C46.4086 44.1936 26.2667 40.446 0 54Z" fill="#E9282B"/>
<path d="M0 54C0 54 32.7076 32.6807 55.0356 36.6119C55.0356 36.6119 51.2952 39.348 47.2463 49.446C47.2463 49.446 27.6739 43.4699 0 54Z" fill="white"/>
</g>
<defs>
<clipPath id="clip0_221_8223">
<rect width="236" height="54" fill="white"/>
</clipPath>
</defs>
</svg>
