<svg width="112" height="29" viewBox="0 0 112 29" fill="none" xmlns="http://www.w3.org/2000/svg">
<path d="M15.9396 16.1742L13.9333 10.0911H12.716L10.7096 16.1742L8.7484 10.1136H7.19293L10.0559 18.3596H11.2958L13.3021 12.4793L15.3084 18.3596H16.5483L19.4112 10.1136H17.9008L15.9396 16.1742Z" fill="#C20000"/>
<path d="M38.5276 15.771L34.1543 10.116H32.8242V18.2944H34.2444V12.4816L38.753 18.2944H39.9703V10.116H38.5276V15.771Z" fill="#C20000"/>
<path d="M49.4844 11.2875C49.1012 10.9271 48.6278 10.6342 48.1093 10.4314C47.5683 10.2286 46.9821 10.116 46.3509 10.116H43.2851V18.3169H44.7053V17.0102V11.4002H46.3284C46.7567 11.4002 47.1399 11.4678 47.5006 11.603C47.8613 11.7381 48.1544 11.9409 48.4024 12.1887C48.6503 12.4366 48.8307 12.7295 48.9659 13.0674C49.1012 13.4054 49.1688 13.7884 49.1688 14.1939V14.2164C49.1688 14.622 49.1012 14.9825 48.9659 15.3204C48.8307 15.6584 48.6278 15.9513 48.4024 16.1991C48.1544 16.4469 47.8613 16.6272 47.5006 16.7849C47.1399 16.9201 46.7567 16.9877 46.3284 16.9877H45.7197V18.2944H46.3284C46.9596 18.2944 47.5683 18.1818 48.1093 17.979C48.6503 17.7762 49.1012 17.4833 49.4844 17.1228C49.8677 16.7624 50.1607 16.3343 50.3861 15.8161C50.589 15.3204 50.7017 14.7797 50.7017 14.1939V14.1714C50.7017 13.5856 50.589 13.0674 50.3861 12.5718C50.1833 12.0761 49.8677 11.648 49.4844 11.2875Z" fill="#C20000"/>
<path d="M54.4445 14.8022H58.5699V13.518H54.4445V11.4002H59.0883V10.116H53.0243V18.2944H59.156V17.0102H54.4445V14.8022Z" fill="#C20000"/>
<path d="M68.0156 14.8675C68.2636 14.7323 68.4665 14.552 68.6243 14.3493C68.8046 14.1465 68.9399 13.8987 69.03 13.6283C69.1202 13.3579 69.1653 13.065 69.1653 12.7271V12.7046C69.1653 12.3441 69.0977 12.0287 68.985 11.7132C68.8722 11.4203 68.6919 11.15 68.489 10.9247C68.2185 10.6768 67.9029 10.4741 67.4971 10.3164C67.0913 10.1812 66.6405 10.0911 66.122 10.0911H62.47V18.292H63.8902V15.4307V14.169V11.3978H65.9867C66.5278 11.3978 66.9561 11.5105 67.2491 11.7358C67.5422 11.9611 67.7 12.299 67.7 12.7496V12.7721C67.7 13.2002 67.5422 13.5382 67.2491 13.786C66.9335 14.0338 66.5278 14.1465 66.0093 14.1465H64.8821V15.4307H65.6937H65.7162L67.7451 18.292H69.4358L67.2266 15.1829C67.5197 15.1153 67.7676 15.0026 68.0156 14.8675Z" fill="#C20000"/>
<path d="M75.8363 10.116H72.7704V18.3169H73.6947V15.4105V14.5769V10.9721H75.7687C77.0987 10.9721 77.9779 11.5804 77.9779 12.752C77.9779 13.8334 77.0987 14.5769 75.7236 14.5769H74.6415V15.4105L75.701 15.4331C77.4368 15.4331 78.9247 14.5093 78.9247 12.752C78.9021 11.0848 77.6848 10.116 75.8363 10.116Z" fill="#C20000"/>
<path d="M83.9542 10.0492L80.212 18.2952H81.1588L82.1282 16.1323L82.4889 15.2987L84.3825 11.1306L86.231 15.2987H83.7738L83.4131 16.1323H86.5917L87.561 18.2952H88.5529L84.8108 10.0492H83.9542Z" fill="#C20000"/>
<path d="M93.8492 13.7649C92.0458 13.3819 91.6175 12.9538 91.6175 12.1653C91.6175 11.4218 92.2938 10.836 93.3533 10.836C94.1874 10.836 94.9538 11.1064 95.7203 11.7147L96.2613 10.9937C95.4273 10.3178 94.5706 9.97986 93.3758 9.97986C91.8204 9.97986 90.6932 10.9261 90.6932 12.2329C90.6932 13.5847 91.5499 14.193 93.4435 14.5985C95.1567 14.959 95.5851 15.3871 95.5851 16.1756C95.5851 17.0093 94.8637 17.5725 93.7591 17.5725C92.6319 17.5725 91.7978 17.1895 90.9412 16.4235L90.3776 17.0994C91.3695 17.9781 92.429 18.4061 93.7365 18.4061C95.3596 18.4061 96.5319 17.4824 96.5319 16.0855C96.5093 14.8238 95.6752 14.1479 93.8492 13.7649Z" fill="#C20000"/>
<path d="M102.326 13.7649C100.523 13.3819 100.094 12.9538 100.094 12.1653C100.094 11.4218 100.771 10.836 101.83 10.836C102.664 10.836 103.431 11.1064 104.197 11.7147L104.738 10.9937C103.904 10.3178 103.047 9.97986 101.853 9.97986C100.297 9.97986 99.17 10.9261 99.17 12.2329C99.17 13.5847 100.027 14.193 101.92 14.5985C103.633 14.959 104.062 15.3871 104.062 16.1756C104.062 17.0093 103.34 17.5725 102.236 17.5725C101.109 17.5725 100.275 17.1895 99.4179 16.4235L98.8544 17.0994C99.8463 17.9781 100.906 18.4061 102.213 18.4061C103.836 18.4061 105.009 17.4824 105.009 16.0855C104.986 14.8238 104.152 14.1479 102.326 13.7649Z" fill="#C20000"/>
<path d="M23.2687 20.5456C23.6971 20.6132 24.1705 20.5907 24.5988 20.5005C25.3427 20.3203 26.0415 19.9598 26.6727 19.5092C27.9126 18.5855 28.8143 17.3013 29.4455 15.9269C30.0316 14.5301 30.3923 12.998 30.2345 11.466C30.1669 10.6999 29.964 9.93391 29.6033 9.258C29.3779 8.85246 29.0623 8.46945 28.6791 8.17655C28.8369 8.19909 29.0172 8.22161 29.175 8.26668C28.9496 8.13149 28.7016 8.04137 28.4311 7.97378C28.2733 7.88366 28.1155 7.79354 27.9577 7.72595C28.0253 7.79354 28.0929 7.86113 28.1606 7.90619C27.7548 7.86113 27.349 7.88366 26.9433 7.97378C26.1768 8.15402 25.5005 8.55957 24.9144 9.05523C23.7196 10.024 22.863 11.3308 22.2318 12.7051C21.6457 14.102 21.2399 15.6115 21.33 17.1435C21.3751 17.9096 21.5329 18.6756 21.9162 19.374C22.1191 19.712 22.367 20.0274 22.6826 20.2752C22.5699 20.2527 22.4572 20.2527 22.3445 20.2302C22.5248 20.3203 22.7277 20.3879 22.9081 20.4555C23.1335 20.6132 23.3589 20.7258 23.6069 20.816C23.5167 20.7484 23.404 20.6583 23.2687 20.5456ZM22.3445 19.2163C22.0965 18.5629 22.0289 17.8645 22.0514 17.1661C22.0965 15.7692 22.5023 14.3949 23.0659 13.1107C23.652 11.8264 24.3959 10.6098 25.3878 9.61848C25.8837 9.14535 26.4473 8.69475 27.1011 8.44692C27.5068 8.26667 27.9577 8.19908 28.4311 8.19908C29.2652 9.10029 29.5357 10.3394 29.5357 11.511C29.5357 12.9079 29.175 14.2822 28.6114 15.5664C28.0479 16.8507 27.2363 18.0222 26.2219 18.9685C25.3652 19.7345 24.2606 20.3428 23.0659 20.3428C22.7503 20.0049 22.5023 19.6219 22.3445 19.2163Z" fill="#C20000"/>
<path d="M30.9998 9.84551C30.6166 9.19214 30.0304 8.60635 29.3316 8.35852C30.5489 9.2372 30.9322 10.7017 30.9547 12.076C30.9547 13.4729 30.6166 14.8697 30.053 16.154C29.4894 17.4382 28.7004 18.6323 27.6634 19.5785C26.649 20.5023 25.2964 21.2232 23.8311 20.9303C24.4849 21.2683 25.2964 21.3134 26.0629 21.1331C26.8068 20.9529 27.5056 20.5924 28.1143 20.1193C29.3541 19.1955 30.2559 17.9113 30.8871 16.5144C31.4732 15.1176 31.8113 13.5855 31.6535 12.0535C31.5859 11.2874 31.383 10.5214 30.9998 9.84551Z" fill="#C20000"/>
<path d="M20.2467 16.4235C20.134 14.959 20.4045 13.4946 20.9681 12.1653C21.5542 10.836 22.4559 9.64193 23.6056 8.74072C24.7553 7.88458 26.2432 7.25373 27.7536 7.68181C27.0773 7.27626 26.2432 7.18614 25.4542 7.29879C24.6652 7.41145 23.8987 7.72687 23.2224 8.15494C21.8473 9.01109 20.8103 10.3404 20.1566 11.8048C19.5254 13.2918 19.2774 14.9365 19.5479 16.5362C19.6832 17.3247 19.9537 18.0907 20.4045 18.7666C20.8554 19.42 21.4866 20.0058 22.2305 20.2311C20.923 19.375 20.382 17.8654 20.2467 16.4235Z" fill="#C20000"/>
</svg>
