<svg width="291" height="76" viewBox="0 0 291 76" fill="none" xmlns="http://www.w3.org/2000/svg">
<path d="M290.658 0.996094H0V51.5705H290.658V0.996094Z" fill="#E21A1A"/>
<path d="M290.658 75.4773L266.315 51.1348H290.658V75.4773Z" fill="#E21A1A"/>
<path d="M176.574 26.7958H174.193C174.193 23.8892 171.931 21.5881 169.074 21.5881C166.812 21.5881 164.907 23.0414 164.192 25.2214C164.074 25.7058 163.954 26.3113 163.954 26.7958V34.4255H163.835C162.526 34.4255 161.573 33.3356 161.573 32.1245V26.7958C161.573 24.737 162.407 22.6781 163.954 21.2248C165.383 19.8927 167.169 19.166 169.074 19.166C173.24 19.166 176.574 22.557 176.574 26.7958Z" fill="white"/>
<path d="M176.574 34.4263H173.24L172.407 33.5786L170.621 31.762L168.121 29.2188H171.455L176.574 34.4263Z" fill="white"/>
<path d="M155.263 32.0034H148.121C147.287 32.0034 146.573 31.2768 146.573 30.429V23.1626C146.573 22.3148 147.287 21.5881 148.121 21.5881H155.263C156.097 21.5881 156.811 22.3148 156.811 23.1626V30.429L159.192 32.8511V21.4671C159.192 20.1349 158.121 19.166 156.93 19.166H146.573C145.263 19.166 144.311 20.256 144.311 21.4671V32.0034C144.311 33.3356 145.382 34.3044 146.573 34.3044H157.645L155.263 32.0034Z" fill="white"/>
<path d="M126.333 34.4255H123L116.094 27.2802V34.4255H113.356V19.166H116.094V25.948L122.762 19.166H125.976L118.833 26.4325L126.333 34.4255Z" fill="white"/>
<path d="M138.834 19.166H141.453V34.4255H138.834V27.7646H131.214V34.4255H128.476V19.166H131.214V25.5847H138.834V19.166Z" fill="white"/>
<path d="M154.43 24.8588V29.7031H149.668C149.191 29.7031 148.835 29.3398 148.835 28.8553V24.8588C148.835 24.3743 149.191 24.011 149.668 24.011H153.478C154.073 23.8899 154.43 24.3743 154.43 24.8588Z" fill="white"/>
</svg>
