<svg width="40" height="25" viewBox="0 0 40 25" fill="none" xmlns="http://www.w3.org/2000/svg">
<path fill-rule="evenodd" clip-rule="evenodd" d="M4.13955 0H35.8605C37.1734 0 37.6495 0.137243 38.1295 0.394956C38.6095 0.65267 38.9863 1.03085 39.243 1.51274C39.4997 1.99462 39.6364 2.4726 39.6364 3.79071V20.4719C39.6364 21.79 39.4997 22.268 39.243 22.7499C38.9863 23.2318 38.6095 23.6099 38.1295 23.8677C37.6495 24.1254 37.1734 24.2626 35.8605 24.2626H4.13955C2.82659 24.2626 2.35047 24.1254 1.87047 23.8677C1.39047 23.6099 1.01377 23.2318 0.757061 22.7499C0.500354 22.268 0.363647 21.79 0.363647 20.4719L0.363647 3.79071C0.363647 2.4726 0.500354 1.99462 0.757061 1.51274C1.01377 1.03085 1.39047 0.65267 1.87047 0.394956C2.35047 0.137243 2.82659 0 4.13955 0Z" fill="#055E7C"/>
<path fill-rule="evenodd" clip-rule="evenodd" d="M32.7184 10.7475C32.4906 10.7475 32.284 10.8381 32.1326 10.9847L28.7613 13.6976L28.1228 13.1909L25.3742 11.0104L25.3253 10.9687C25.2835 10.9343 25.2779 10.9299 25.2105 10.8811C25.0628 10.7718 24.897 10.701 24.7062 10.701C24.2611 10.701 23.9004 11.071 23.9004 11.5273C23.9004 11.7816 24.0125 12.009 24.1886 12.1605L24.1887 12.1607L24.1898 12.1616C24.1974 12.168 24.2052 12.1742 24.2129 12.1805L27.343 14.7451L27.8927 15.1955L27.8947 17.4394L27.895 17.4433C27.8991 17.894 28.267 18.2582 28.7202 18.2582C29.1677 18.2582 29.5318 17.9033 29.545 17.4604L29.5466 17.4576V15.1972L32.882 12.5399L32.9197 12.5083L33.0172 12.4271C33.038 12.4099 33.0652 12.3893 33.084 12.371L33.2155 12.2611C33.4148 12.0891 33.5594 11.8628 33.5594 11.5856C33.5594 11.1228 33.1828 10.7475 32.7184 10.7475Z" fill="#00BCD4"/>
<path fill-rule="evenodd" clip-rule="evenodd" d="M24.8119 16.9732L20.852 11.0501C20.7006 10.839 20.449 10.701 20.1687 10.701C19.7075 10.701 19.3337 11.0736 19.3337 11.533C19.3337 11.7184 19.3945 11.8894 19.4971 12.0277L21.3715 14.717L17.8069 14.7112C17.5971 14.717 17.2661 14.8489 17.0266 15.1446L15.7714 16.9217C15.6409 17.0644 15.5612 17.2541 15.5612 17.4626C15.5612 17.9061 15.922 18.2656 16.3671 18.2656C16.6337 18.2656 16.8699 18.1366 17.0166 17.9378L17.027 17.9317L18.1585 16.4325H22.5634L23.4738 17.8527C23.6101 18.0988 23.8728 18.2656 24.1749 18.2656C24.6166 18.2656 24.9748 17.9087 24.9748 17.4684C24.9748 17.3023 24.9238 17.148 24.8365 17.0204C24.8292 17.0032 24.821 16.9873 24.8119 16.9732Z" fill="#00BCD4"/>
<path fill-rule="evenodd" clip-rule="evenodd" d="M14.0061 10.701C14.0003 10.701 13.9945 10.701 13.9889 10.701H7.84646C7.3846 10.701 7.01019 11.0742 7.01019 11.5344C7.01019 11.702 7.06024 11.8576 7.14565 11.9882C7.26193 12.1521 7.4254 12.2696 7.63335 12.3395C7.70148 12.3574 7.77275 12.3678 7.84646 12.3678H11.7139H13.9076L14.0428 12.3675H14.0557C14.0777 12.3677 14.0995 12.3688 14.121 12.3709C14.4621 12.4058 14.7281 12.6928 14.7281 13.0419C14.7281 13.4114 14.43 13.711 14.0603 13.716L14.0043 13.7165H11.7111H7.86999H7.80566C7.30912 13.7165 7.01019 14.1013 7.01019 14.5396V17.4209C7.01019 17.8762 7.38093 18.2458 7.83789 18.2458C8.28411 18.2458 8.64778 17.8926 8.66423 17.4519V17.3899V15.3924H14.0074L14.0305 15.391C14.0312 15.391 14.0318 15.3909 14.0323 15.3907C15.3019 15.3563 16.3204 14.32 16.3204 13.0469C16.3204 11.7648 15.2877 10.722 14.0061 10.701Z" fill="#00BCD4"/>
<path fill-rule="evenodd" clip-rule="evenodd" d="M7.99706 7.84218H8.80436L8.40166 6.61211L7.99706 7.84218ZM8.74398 6.03333L9.78969 8.92332H9.1634L8.96607 8.32922H7.83984L7.65053 8.92332H7.02139L8.05432 6.03333H8.74398Z" fill="white"/>
<path fill-rule="evenodd" clip-rule="evenodd" d="M11.9058 8.40118C12.2329 8.40118 12.3877 8.29114 12.3877 8.02689C12.3877 7.74488 12.2329 7.64419 11.9024 7.64419H11.2005V8.40118H11.9058ZM11.8822 7.15024C12.168 7.15024 12.3059 7.05795 12.3059 6.83598C12.3059 6.61211 12.1653 6.53541 11.8777 6.53541H11.2005V7.15024H11.8822ZM10.6273 6.03333H11.995C12.596 6.03333 12.9064 6.29419 12.9064 6.76402C12.9064 7.05321 12.7942 7.25079 12.56 7.35947C12.8627 7.48022 13.0084 7.7049 13.0084 8.04396C13.0084 8.59388 12.6366 8.92332 11.9513 8.92332H10.6273V6.03333Z" fill="white"/>
<path fill-rule="evenodd" clip-rule="evenodd" d="M14.5739 7.84218H15.3812L14.9781 6.61211L14.5739 7.84218ZM15.3203 6.03333L16.3665 8.92332H15.7409L15.5426 8.32922H14.4167L14.227 8.92332H13.5988L14.6305 6.03333H15.3203Z" fill="white"/>
<path fill-rule="evenodd" clip-rule="evenodd" d="M16.6358 6.67466H17.1961V5.45923H16.6358V6.67466Z" fill="#EB2227"/>
<path fill-rule="evenodd" clip-rule="evenodd" d="M35.0546 11.6528C35.0546 11.4728 35.1855 11.3256 35.3655 11.3256C35.5455 11.3256 35.6928 11.4565 35.6928 11.6528C35.6928 11.8165 35.5619 11.9801 35.3655 11.9801C35.2019 11.9801 35.0546 11.8165 35.0546 11.6528ZM35.3655 11.8983C35.4964 11.8983 35.611 11.8001 35.611 11.6692C35.611 11.5383 35.4964 11.4401 35.3655 11.4401C35.251 11.4401 35.1364 11.5383 35.1364 11.6692C35.1364 11.7837 35.251 11.8983 35.3655 11.8983ZM35.3328 11.7837H35.2673V11.5056H35.4473C35.4801 11.5219 35.48 11.5547 35.48 11.5874C35.48 11.6037 35.4637 11.6365 35.431 11.6528L35.4964 11.7674H35.4146L35.3819 11.6692H35.3328V11.7837V11.6365H35.3655C35.3819 11.6365 35.3982 11.6365 35.3982 11.6201C35.4146 11.6201 35.4146 11.6037 35.4146 11.5874C35.4146 11.5874 35.4146 11.571 35.3982 11.571C35.3982 11.5547 35.3819 11.571 35.3655 11.571H35.3328V11.7837Z" fill="white"/>
</svg>
