<svg width="24" height="25" viewBox="0 0 24 25" fill="none" xmlns="http://www.w3.org/2000/svg">
<path d="M14 6.5H3C2.4 6.5 2 6.1 2 5.5C2 4.9 2.4 4.5 3 4.5H14C14.6 4.5 15 4.9 15 5.5C15 6.1 14.6 6.5 14 6.5Z" fill="black"/>
<path d="M12 8.5C11.7 8.5 11.5 8.4 11.3 8.2C10.9 7.8 10.9 7.2 11.3 6.8L12.6 5.5L11.3 4.2C10.9 3.8 10.9 3.2 11.3 2.8C11.7 2.4 12.3 2.4 12.7 2.8L14.7 4.8C15.1 5.2 15.1 5.8 14.7 6.2L12.7 8.2C12.5 8.4 12.3 8.5 12 8.5Z" fill="black"/>
<path d="M5 8.5C4.7 8.5 4.5 8.4 4.3 8.2L2.3 6.2C1.9 5.8 1.9 5.2 2.3 4.8L4.3 2.8C4.7 2.4 5.3 2.4 5.7 2.8C6.1 3.2 6.1 3.8 5.7 4.2L4.4 5.5L5.7 6.8C6.1 7.2 6.1 7.8 5.7 8.2C5.5 8.4 5.3 8.5 5 8.5Z" fill="black"/>
<path d="M19 22.5C18.4 22.5 18 22.1 18 21.5V10.5C18 9.9 18.4 9.5 19 9.5C19.6 9.5 20 9.9 20 10.5V21.5C20 22.1 19.6 22.5 19 22.5Z" fill="black"/>
<path d="M19 22.5C18.7 22.5 18.5 22.4 18.3 22.2L16.3 20.2C15.9 19.8 15.9 19.2 16.3 18.8C16.7 18.4 17.3 18.4 17.7 18.8L19 20.1L20.3 18.8C20.7 18.4 21.3 18.4 21.7 18.8C22.1 19.2 22.1 19.8 21.7 20.2L19.7 22.2C19.5 22.4 19.3 22.5 19 22.5Z" fill="black"/>
<path d="M21 13.5C20.7 13.5 20.5 13.4 20.3 13.2L19 11.9L17.7 13.2C17.3 13.6 16.7 13.6 16.3 13.2C15.9 12.8 15.9 12.2 16.3 11.8L18.3 9.8C18.7 9.4 19.3 9.4 19.7 9.8L21.7 11.8C22.1 12.2 22.1 12.8 21.7 13.2C21.5 13.4 21.3 13.5 21 13.5Z" fill="black"/>
<path d="M12 22.5H5C3.3 22.5 2 21.2 2 19.5V12.5C2 10.8 3.3 9.5 5 9.5H12C13.7 9.5 15 10.8 15 12.5V19.5C15 21.2 13.7 22.5 12 22.5ZM5 11.5C4.4 11.5 4 11.9 4 12.5V19.5C4 20.1 4.4 20.5 5 20.5H12C12.6 20.5 13 20.1 13 19.5V12.5C13 11.9 12.6 11.5 12 11.5H5Z" fill="black"/>
</svg>
