<svg width="16" height="15" viewBox="0 0 16 15" fill="none" xmlns="http://www.w3.org/2000/svg">
<path d="M15.5355 0.34929C15.3118 0.12564 15.0084 0 14.692 0C14.3757 0 14.0723 0.12564 13.8486 0.34929L8.37756 5.82032L2.90653 0.34929C2.68153 0.131978 2.38018 0.0117321 2.06738 0.0144502C1.75459 0.0171683 1.45537 0.142633 1.23418 0.363822C1.01299 0.585011 0.887529 0.884227 0.884811 1.19702C0.882093 1.50982 1.00234 1.81117 1.21965 2.03617L6.69068 7.5072L1.21965 12.9782C1.00234 13.2032 0.882093 13.5046 0.884811 13.8174C0.887529 14.1302 1.01299 14.4294 1.23418 14.6506C1.45537 14.8718 1.75459 14.9972 2.06738 15C2.38018 15.0027 2.68153 14.8824 2.90653 14.6651L8.37756 9.19408L13.8486 14.6651C14.0736 14.8824 14.3749 15.0027 14.6877 15C15.0005 14.9972 15.2998 14.8718 15.5209 14.6506C15.7421 14.4294 15.8676 14.1302 15.8703 13.8174C15.873 13.5046 15.7528 13.2032 15.5355 12.9782L10.0644 7.5072L15.5355 2.03617C15.7591 1.81245 15.8848 1.50907 15.8848 1.19273C15.8848 0.876394 15.7591 0.573008 15.5355 0.34929Z" fill="white"/>
</svg>
