<svg width="38" height="25" viewBox="0 0 38 25" fill="none" xmlns="http://www.w3.org/2000/svg">
<g clip-path="url(#clip0_69_3999)">
<path fill-rule="evenodd" clip-rule="evenodd" d="M9.85938 18.0318V13.6781L2.82812 13.6781V10.4474L9.85939 10.4473L9.85946 8.0981L9.86149 7.9725C9.93495 5.60848 11.9047 3.72406 14.3125 3.72406H25.3281V3.03176C25.3281 1.8847 24.3837 0.954834 23.2188 0.954834H3.0625C1.89752 0.954834 0.953125 1.8847 0.953125 3.03176V15.9548C0.953125 17.1019 1.89752 18.0318 3.0625 18.0318H9.85938ZM7.01693 2.80099C7.50408 2.80099 7.78132 2.8537 8.07074 3.0061C8.34605 3.15107 8.56632 3.36795 8.71356 3.63903C8.86834 3.92399 8.92188 4.19697 8.92188 4.67663L8.92185 6.93115L8.921 7.02795C8.91357 7.44329 8.85733 7.69825 8.71356 7.96295C8.56632 8.23402 8.34605 8.4509 8.07074 8.59587C7.78132 8.74827 7.50408 8.80099 7.01693 8.80099L4.72718 8.80096L4.62886 8.80012C4.20703 8.79281 3.94809 8.73743 3.67926 8.59587C3.40395 8.4509 3.18368 8.23402 3.03644 7.96295C2.88166 7.67798 2.82812 7.40501 2.82812 6.92535L2.82815 4.67082L2.829 4.57402C2.83643 4.15868 2.89267 3.90372 3.03644 3.63903C3.18368 3.36795 3.40395 3.15107 3.67926 3.0061C3.96868 2.8537 4.24592 2.80099 4.73307 2.80099H7.01693Z" fill="#005E7B" stroke="#005E7B" stroke-width="1.5"/>
<path fill-rule="evenodd" clip-rule="evenodd" d="M14.7812 6.49341C13.6163 6.49341 12.6719 7.42328 12.6719 8.57033V21.4934C12.6719 22.6405 13.6163 23.5703 14.7812 23.5703H34.9375C36.1025 23.5703 37.0469 22.6405 37.0469 21.4934V8.57033C37.0469 7.42328 36.1025 6.49341 34.9375 6.49341H14.7812Z" stroke="#005E7B" stroke-width="1.5"/>
<path fill-rule="evenodd" clip-rule="evenodd" d="M13.375 10.2166H36.3437V12.5242H13.375V10.2166Z" fill="#005E7B"/>
<path fill-rule="evenodd" clip-rule="evenodd" d="M29.5768 15.2936H31.8607C32.2786 15.2936 32.4301 15.3364 32.5829 15.4169C32.7357 15.4973 32.8556 15.6154 32.9373 15.7658C33.019 15.9162 33.0625 16.0654 33.0625 16.4769V18.7256C33.0625 19.1371 33.019 19.2863 32.9373 19.4367C32.8556 19.5872 32.7357 19.7052 32.5829 19.7857C32.4301 19.8661 32.2786 19.909 31.8607 19.909H29.5768C29.1589 19.909 29.0074 19.8661 28.8546 19.7857C28.7018 19.7052 28.5819 19.5872 28.5002 19.4367C28.4185 19.2863 28.375 19.1371 28.375 18.7256V16.4769C28.375 16.0654 28.4185 15.9162 28.5002 15.7658C28.5819 15.6154 28.7018 15.4973 28.8546 15.4169C29.0074 15.3364 29.1589 15.2936 29.5768 15.2936Z" fill="#005E7B"/>
<path d="M24.1562 18.0627H16.6562V19.9089H24.1562V18.0627Z" fill="#005E7B"/>
</g>
<defs>
<clipPath id="clip0_69_3999">
<rect width="37.5" height="24" fill="white" transform="translate(0.25 0.262573)"/>
</clipPath>
</defs>
</svg>
