<svg width="24" height="24" viewBox="0 0 24 24" fill="none" xmlns="http://www.w3.org/2000/svg">
<g clip-path="url(#clip0_13_2450)">
<path d="M21 1.5H3C2.20435 1.5 1.44129 1.81607 0.87868 2.37868C0.316071 2.94129 0 3.70435 0 4.5L0 5.1L12 11.85L24 5.25V4.5C24 3.70435 23.6839 2.94129 23.1213 2.37868C22.5587 1.81607 21.7956 1.5 21 1.5Z" fill="#212121"/>
<path d="M11.25 14.85L0 8.55005V19.5C0 20.2957 0.316071 21.0588 0.87868 21.6214C1.44129 22.184 2.20435 22.5 3 22.5H21C21.7956 22.5 22.5587 22.184 23.1213 21.6214C23.6839 21.0588 24 20.2957 24 19.5V8.55005L12.75 14.85C12.5136 14.9539 12.2582 15.0075 12 15.0075C11.7418 15.0075 11.4864 14.9539 11.25 14.85Z" fill="#212121"/>
</g>
<defs>
<clipPath id="clip0_13_2450">
<rect width="24" height="24" fill="white"/>
</clipPath>
</defs>
</svg>
