<svg width="16" height="16" viewBox="0 0 16 16" fill="none" xmlns="http://www.w3.org/2000/svg">
<path d="M10.7729 6.0759L10.7729 10.8032L6.0456 10.8032C5.56075 10.8032 5.19711 10.4092 5.19711 9.95469L5.19711 6.0759C5.19711 5.59105 5.59105 5.22742 6.0456 5.22742L9.89408 5.22742C10.4092 5.22742 10.7729 5.59105 10.7729 6.0759Z" fill="#E1232E"/>
<path d="M11.5607 13.1667L4.43948 13.1667C3.5607 13.1667 2.86373 12.4697 2.86373 11.5909L2.86373 4.43939C2.86373 3.56061 3.5607 2.86364 4.43948 2.86364L11.5607 2.86364C12.4395 2.86364 13.1365 3.56061 13.1365 4.43939L13.1365 11.5606L15.5001 13.9242L15.5001 2.80303C15.5001 1.5303 14.4698 0.5 13.1971 0.5L2.80312 0.5C1.53039 0.5 0.500092 1.5303 0.500092 2.80303L0.500091 13.197C0.500091 14.4697 1.53039 15.5 2.80312 15.5L13.9243 15.5L11.5607 13.1667Z" fill="#E1232E"/>
</svg>
