<svg width="27" height="27" viewBox="0 0 27 27" fill="none" xmlns="http://www.w3.org/2000/svg">
<path d="M23.625 8.4375H3.375C2.92745 8.4375 2.49822 8.25971 2.18176 7.94324C1.86529 7.62677 1.6875 7.19755 1.6875 6.75C1.6875 6.30245 1.86529 5.87322 2.18176 5.55676C2.49822 5.24029 2.92745 5.0625 3.375 5.0625H23.625C24.0726 5.0625 24.5018 5.24029 24.8182 5.55676C25.1347 5.87322 25.3125 6.30245 25.3125 6.75C25.3125 7.19755 25.1347 7.62677 24.8182 7.94324C24.5018 8.25971 24.0726 8.4375 23.625 8.4375ZM25.3125 13.5C25.3125 13.0524 25.1347 12.6232 24.8182 12.3068C24.5018 11.9903 24.0726 11.8125 23.625 11.8125H3.375C2.92745 11.8125 2.49822 11.9903 2.18176 12.3068C1.86529 12.6232 1.6875 13.0524 1.6875 13.5C1.6875 13.9476 1.86529 14.3768 2.18176 14.6932C2.49822 15.0097 2.92745 15.1875 3.375 15.1875H23.625C24.0726 15.1875 24.5018 15.0097 24.8182 14.6932C25.1347 14.3768 25.3125 13.9476 25.3125 13.5ZM25.3125 20.25C25.3125 19.8024 25.1347 19.3732 24.8182 19.0568C24.5018 18.7403 24.0726 18.5625 23.625 18.5625H3.375C2.92745 18.5625 2.49822 18.7403 2.18176 19.0568C1.86529 19.3732 1.6875 19.8024 1.6875 20.25C1.6875 20.6976 1.86529 21.1268 2.18176 21.4432C2.49822 21.7597 2.92745 21.9375 3.375 21.9375H23.625C24.0726 21.9375 24.5018 21.7597 24.8182 21.4432C25.1347 21.1268 25.3125 20.6976 25.3125 20.25Z" fill="#E9282B"/>
</svg>
