<svg width="62" height="44" viewBox="0 0 62 44" fill="none" xmlns="http://www.w3.org/2000/svg">
<path d="M57.5714 8.8H4.42857C3.25404 8.8 2.12762 8.33643 1.2971 7.51127C0.46658 6.68611 0 5.56695 0 4.4C0 3.23305 0.46658 2.11389 1.2971 1.28873C2.12762 0.46357 3.25404 0 4.42857 0H57.5714C58.746 0 59.8724 0.46357 60.7029 1.28873C61.5334 2.11389 62 3.23305 62 4.4C62 5.56695 61.5334 6.68611 60.7029 7.51127C59.8724 8.33643 58.746 8.8 57.5714 8.8ZM62 22C62 20.833 61.5334 19.7139 60.7029 18.8887C59.8724 18.0636 58.746 17.6 57.5714 17.6H4.42857C3.25404 17.6 2.12762 18.0636 1.2971 18.8887C0.46658 19.7139 0 20.833 0 22C0 23.167 0.46658 24.2861 1.2971 25.1113C2.12762 25.9364 3.25404 26.4 4.42857 26.4H57.5714C58.746 26.4 59.8724 25.9364 60.7029 25.1113C61.5334 24.2861 62 23.167 62 22ZM62 39.6C62 38.433 61.5334 37.3139 60.7029 36.4887C59.8724 35.6636 58.746 35.2 57.5714 35.2H4.42857C3.25404 35.2 2.12762 35.6636 1.2971 36.4887C0.46658 37.3139 0 38.433 0 39.6C0 40.767 0.46658 41.8861 1.2971 42.7113C2.12762 43.5364 3.25404 44 4.42857 44H57.5714C58.746 44 59.8724 43.5364 60.7029 42.7113C61.5334 41.8861 62 40.767 62 39.6Z" fill="black"/>
</svg>
