<svg width="24" height="24" viewBox="0 0 24 24" fill="none" xmlns="http://www.w3.org/2000/svg">
<path fill-rule="evenodd" clip-rule="evenodd" d="M18.75 10.9999L18.744 11.2429L18.75 11.4999L18.744 11.7449L18.75 11.9999L18.561 20.2529C18.5498 20.7496 18.3584 21.2252 18.0224 21.5912C17.6865 21.9571 17.2289 22.1884 16.735 22.2419C13.588 22.5819 10.412 22.5819 7.265 22.2419C6.77093 22.1886 6.31311 21.9574 5.97694 21.5915C5.64077 21.2255 5.44922 20.7497 5.438 20.2529L5.25 11.9999L5.256 11.7429L5.25 11.4999L5.256 11.2439L5.25 10.9999L5.418 4.35891L5.425 4.22791L5.435 3.76591C5.44742 3.25502 5.64571 2.76618 5.99271 2.39101C6.33972 2.01584 6.81163 1.78008 7.32 1.72791C7.407 1.71791 7.495 1.70991 7.582 1.70091C7.70222 1.67294 7.82415 1.6529 7.947 1.64091C10.6426 1.37816 13.3574 1.37816 16.053 1.64091C16.177 1.65391 16.299 1.67391 16.417 1.70091L16.68 1.72791C17.188 1.78028 17.6596 2.016 18.0063 2.39094C18.3531 2.76588 18.5514 3.25434 18.564 3.76491L18.575 4.22891C18.578 4.27191 18.58 4.31491 18.581 4.35891L18.75 10.9999ZM16 17.7499C16.1989 17.7499 16.3897 17.6709 16.5303 17.5302C16.671 17.3896 16.75 17.1988 16.75 16.9999C16.75 16.801 16.671 16.6102 16.5303 16.4696C16.3897 16.3289 16.1989 16.2499 16 16.2499H8C7.80109 16.2499 7.61032 16.3289 7.46967 16.4696C7.32902 16.6102 7.25 16.801 7.25 16.9999C7.25 17.1988 7.32902 17.3896 7.46967 17.5302C7.61032 17.6709 7.80109 17.7499 8 17.7499H16ZM12 21.6999C12.3978 21.6999 12.7794 21.5419 13.0607 21.2606C13.342 20.9793 13.5 20.5977 13.5 20.1999C13.5 19.8021 13.342 19.4206 13.0607 19.1392C12.7794 18.8579 12.3978 18.6999 12 18.6999C11.6022 18.6999 11.2206 18.8579 10.9393 19.1392C10.658 19.4206 10.5 19.8021 10.5 20.1999C10.5 20.5977 10.658 20.9793 10.9393 21.2606C11.2206 21.5419 11.6022 21.6999 12 21.6999Z" fill="#212121"/>
</svg>
