<svg width="55" height="54" viewBox="0 0 55 54" fill="none" xmlns="http://www.w3.org/2000/svg">
<path d="M53.6976 46.4501L41.0527 33.8642C43.2011 30.46 44.4481 26.4364 44.4481 22.1184C44.4481 9.90201 34.4976 0 22.2236 0C9.94958 0 0 9.90201 0 22.1184C0 34.3352 9.94912 44.2362 22.2236 44.2362C26.9451 44.2362 31.3184 42.7671 34.9171 40.2707L47.4115 52.7069C48.2796 53.57 49.4178 54 50.5545 54C51.6926 54 52.8294 53.57 53.6989 52.7069C55.4339 50.9783 55.4339 48.1782 53.6976 46.4501ZM22.2236 37.0702C13.9275 37.0702 7.2015 30.3766 7.2015 22.1193C7.2015 13.862 13.9275 7.16786 22.2236 7.16786C30.5201 7.16786 37.2456 13.862 37.2456 22.1193C37.2456 30.3766 30.5201 37.0702 22.2236 37.0702Z" fill="white"/>
</svg>
