<svg width="16" height="19" viewBox="0 0 16 19" fill="none" xmlns="http://www.w3.org/2000/svg">
<path d="M8.00018 18.5C7.26761 18.4995 6.5513 18.284 5.94018 17.88L1.85018 15.18C1.32949 14.8409 0.90203 14.3768 0.606821 13.8301C0.311611 13.2833 0.158057 12.6714 0.160178 12.05V4.25C0.160174 3.25717 0.55389 2.30485 1.25499 1.60188C1.95609 0.898904 2.90735 0.502648 3.90018 0.5H12.1002C13.0947 0.5 14.0486 0.895088 14.7518 1.59835C15.4551 2.30161 15.8502 3.25544 15.8502 4.25V12.05C15.8523 12.6714 15.6987 13.2833 15.4035 13.8301C15.1083 14.3768 14.6809 14.8409 14.1602 15.18L10.0502 17.88C9.44189 18.2821 8.72934 18.4976 8.00018 18.5ZM3.90018 1.76C3.57282 1.75868 3.24843 1.82218 2.94573 1.94685C2.64304 2.07151 2.36801 2.25487 2.13653 2.48635C1.90505 2.71784 1.72169 2.99286 1.59702 3.29556C1.47236 3.59825 1.40886 3.92264 1.41018 4.25V12.05C1.40733 12.4628 1.50843 12.8697 1.70416 13.2332C1.89989 13.5967 2.18395 13.9051 2.53018 14.13L6.62018 16.83C7.02638 17.0992 7.50288 17.2428 7.99018 17.2428C8.47748 17.2428 8.95398 17.0992 9.36018 16.83L13.4702 14.13C13.8151 13.9038 14.0982 13.5951 14.2938 13.2319C14.4893 12.8687 14.5912 12.4625 14.5902 12.05V4.25C14.5915 3.92264 14.528 3.59825 14.4033 3.29556C14.2787 2.99286 14.0953 2.71784 13.8638 2.48635C13.6323 2.25487 13.3573 2.07151 13.0546 1.94685C12.7519 1.82218 12.4275 1.75868 12.1002 1.76H3.90018Z" fill="#33A16E"/>
<path d="M7.0502 11.16C6.83479 11.16 6.62148 11.1177 6.42245 11.0353C6.22341 10.953 6.04255 10.8322 5.8902 10.68L4.2002 8.97995L5.0802 8.08995L6.7802 9.78995C6.81553 9.82563 6.85758 9.85395 6.90392 9.87328C6.95027 9.89261 6.99998 9.90256 7.0502 9.90256C7.10041 9.90256 7.15012 9.89261 7.19647 9.87328C7.24281 9.85395 7.28486 9.82563 7.3202 9.78995L10.9202 6.19995L11.8002 7.07995L8.2102 10.68C8.05784 10.8322 7.87698 10.953 7.67794 11.0353C7.47891 11.1177 7.2656 11.16 7.0502 11.16Z" fill="#33A16E"/>
</svg>
