<svg width="47" height="48" viewBox="0 0 47 48" fill="none" xmlns="http://www.w3.org/2000/svg">
<g clip-path="url(#clip0_221_7181)">
<path d="M18.3567 0C18.3567 0 30.3843 5.97947 32.5664 25.941C32.5664 25.941 22.4817 28.2045 11.7104 36.1656C11.7104 36.1673 22.2342 20.8209 18.3567 0Z" fill="white"/>
<path d="M0 48C0 48 25.6304 25.9237 44.9637 27.1774C44.9637 27.1774 42.0611 29.9665 39.6315 39.285C39.6332 39.285 22.4327 35.9512 0 48Z" fill="#E9282B"/>
<path d="M0 48C0 48 27.9311 29.05 47 32.543C47 32.543 43.804 34.9759 40.3487 43.9503C40.3487 43.952 23.6331 38.64 0 48Z" fill="white"/>
</g>
<defs>
<clipPath id="clip0_221_7181">
<rect width="47" height="48" fill="white"/>
</clipPath>
</defs>
</svg>
