<svg width="47" height="48" viewBox="0 0 47 48" fill="none" xmlns="http://www.w3.org/2000/svg">
<path d="M18.3567 0C18.3567 0 30.3843 5.97947 32.5664 25.941C32.5664 25.941 22.4817 28.2045 11.7104 36.1656C11.7104 36.1673 22.2342 20.8209 18.3567 0Z" fill="#47C0EB"/>
<path d="M0 47.9999C0 47.9999 25.6304 25.9236 44.9637 27.1773C44.9637 27.1773 42.0611 29.9664 39.6315 39.2849C39.6332 39.2849 22.4327 35.9511 0 47.9999Z" fill="#E9282B"/>
<path d="M0 47.9999C0 47.9999 27.9311 29.0499 47 32.5428C47 32.5428 43.804 34.9758 40.3487 43.9502C40.3487 43.9519 23.6331 38.6399 0 47.9999Z" fill="#47C0EB"/>
</svg>
