<svg width="18" height="20" viewBox="0 0 18 20" fill="none" xmlns="http://www.w3.org/2000/svg">
<path d="M10.252 0C10.5 0 10.708 0.21 10.708 0.46V3.68C10.708 5.51 12.193 7.01 14.015 7.02C14.757 7.02 15.351 7.03 15.807 7.03C16.114 7.03 16.619 7.02 17.045 7.02C17.292 7.02 17.5 7.22 17.5 7.47V15.51C17.5 17.99 15.5 20 13.045 20H5.173C2.59 20 0.5 17.89 0.5 15.29V4.51C0.5 2.03 2.49 0 4.965 0H10.252ZM8.64 6.74C8.44328 6.74338 8.25536 6.82213 8.115 6.96L5.282 9.84C5.1441 9.97995 5.0668 10.1685 5.0668 10.365C5.0668 10.5615 5.1441 10.7501 5.282 10.89C5.34992 10.9589 5.43087 11.0137 5.52014 11.051C5.60941 11.0884 5.70522 11.1077 5.802 11.1077C5.89878 11.1077 5.99459 11.0884 6.08386 11.051C6.17313 11.0137 6.25408 10.9589 6.322 10.89L7.896 9.29V14.12C7.896 14.3156 7.9737 14.5032 8.11201 14.6415C8.25032 14.7798 8.4379 14.8575 8.6335 14.8575C8.8291 14.8575 9.01668 14.7798 9.15499 14.6415C9.2933 14.5032 9.371 14.3156 9.371 14.12V9.29L10.946 10.89C11.0139 10.9589 11.0949 11.0137 11.1841 11.051C11.2734 11.0884 11.3692 11.1077 11.466 11.1077C11.5628 11.1077 11.6586 11.0884 11.7479 11.051C11.8371 11.0137 11.9181 10.9589 11.986 10.89C12.056 10.8219 12.1117 10.7406 12.1501 10.6508C12.1884 10.561 12.2086 10.4645 12.2094 10.3669C12.2103 10.2692 12.1917 10.1724 12.1549 10.082C12.1181 9.99155 12.0638 9.9093 11.995 9.84L9.153 6.96C9.01539 6.82469 8.83189 6.74615 8.639 6.74H8.64ZM12.145 0.906C12.145 0.475 12.662 0.261 12.958 0.572L16.945 4.759C17.0094 4.82622 17.0527 4.91082 17.0697 5.00237C17.0866 5.09392 17.0763 5.18842 17.0402 5.27422C17.004 5.36002 16.9436 5.43336 16.8662 5.48521C16.7889 5.53706 16.6981 5.56514 16.605 5.566C15.791 5.569 14.832 5.566 14.142 5.559C13.047 5.559 12.145 4.648 12.145 3.542V0.906Z" fill="#212121"/>
</svg>
