<svg width="61" height="61" viewBox="0 0 61 61" fill="none" xmlns="http://www.w3.org/2000/svg">
<g clip-path="url(#clip0_105_73)">
<path d="M53.3746 17.0413C51.6614 17.7643 49.8443 18.2389 47.9836 18.4493C49.9217 17.3427 51.4098 15.5902 52.1105 13.5022C50.2681 14.5438 48.2524 15.2777 46.1504 15.6721C44.4381 13.9343 41.9989 12.8483 39.2991 12.8483C34.1154 12.8483 29.9127 16.852 29.9127 21.7901C29.9127 22.491 29.9958 23.1734 30.1557 23.828C22.355 23.455 15.4389 19.8951 10.8094 14.4851C10.0016 15.8058 9.53875 17.342 9.53875 18.9805C9.53875 22.0829 11.1959 24.8198 13.7143 26.4234C12.2238 26.3789 10.766 25.9954 9.46279 25.3048C9.46226 25.3423 9.46226 25.3797 9.46226 25.4173C9.46226 29.7498 12.6976 33.364 16.9913 34.1855C15.6092 34.5436 14.1594 34.596 12.7527 34.3387C13.947 37.8913 17.4135 40.4764 21.5206 40.5488C18.3083 42.947 14.261 44.3766 9.86364 44.3766C9.10591 44.3766 8.3589 44.3342 7.62457 44.2516C11.7784 46.7888 16.712 48.2692 22.0126 48.2692C39.2773 48.2692 48.7181 34.6435 48.7181 22.8271C48.7181 22.4392 48.7091 22.0536 48.6909 21.6702C50.5285 20.4047 52.1145 18.8372 53.3746 17.0413Z" fill="gray"/>
</g>
<defs>
<clipPath id="clip0_105_73">
<rect width="45.75" height="35.5833" fill="white" transform="translate(7.62457 12.7084)"/>
</clipPath>
</defs>
</svg>
