<svg width="51" height="51" viewBox="0 0 51 51" fill="none" xmlns="http://www.w3.org/2000/svg">
<g clip-path="url(#clip0_105_78)">
<path d="M16.2197 40.3749V18.8689H8.93031V40.3749H16.2197ZM12.576 15.9308C15.1179 15.9308 16.7001 14.2794 16.7001 12.2157C16.6528 10.1055 15.118 8.49988 12.6242 8.49988C10.1308 8.49988 8.50024 10.1055 8.50024 12.2157C8.50024 14.2795 10.0821 15.9308 12.5284 15.9308H12.5757H12.576ZM20.2544 40.3749H27.5438V28.3649C27.5438 27.7221 27.5911 27.08 27.7836 26.6206C28.3106 25.3363 29.51 24.0063 31.5236 24.0063C34.1613 24.0063 35.2166 25.9784 35.2166 28.8695V40.3747H42.5055V28.0434C42.5055 21.4376 38.9093 18.364 34.1133 18.364C30.181 18.364 28.4544 20.5194 27.4953 21.9875H27.5439V18.8684H20.2545C20.3502 20.8864 20.2545 40.3745 20.2545 40.3745L20.2544 40.3749Z" fill="gray"/>
</g>
<defs>
<clipPath id="clip0_105_78">
<rect width="34" height="31.875" fill="white" transform="translate(8.50024 8.5)"/>
</clipPath>
</defs>
</svg>
