<svg width="54" height="54" viewBox="0 0 54 54" fill="none" xmlns="http://www.w3.org/2000/svg">
<g clip-path="url(#clip0_105_83)">
<path d="M27.0083 17.9034C21.8975 17.9034 17.7752 21.9613 17.7752 26.9921C17.7752 32.023 21.8975 36.0809 27.0083 36.0809C32.119 36.0809 36.2413 32.023 36.2413 26.9921C36.2413 21.9613 32.119 17.9034 27.0083 17.9034ZM27.0083 32.901C23.7056 32.901 21.0056 30.2511 21.0056 26.9921C21.0056 23.7331 23.6975 21.0832 27.0083 21.0832C30.319 21.0832 33.0109 23.7331 33.0109 26.9921C33.0109 30.2511 30.3109 32.901 27.0083 32.901ZM38.7725 17.5316C38.7725 18.7102 37.8082 19.6515 36.619 19.6515C35.4216 19.6515 34.4654 18.7023 34.4654 17.5316C34.4654 16.3609 35.4297 15.4117 36.619 15.4117C37.8082 15.4117 38.7725 16.3609 38.7725 17.5316ZM44.8877 19.6831C44.7511 16.8434 44.0922 14.328 41.9788 12.2555C39.8734 10.1831 37.3181 9.53442 34.4332 9.39204C31.46 9.22593 22.5484 9.22593 19.5752 9.39204C16.6984 9.52651 14.1431 10.1751 12.0297 12.2476C9.9163 14.3201 9.26541 16.8355 9.12076 19.6752C8.95201 22.602 8.95201 31.3744 9.12076 34.3011C9.25737 37.1409 9.9163 39.6563 12.0297 41.7287C14.1431 43.8012 16.6904 44.4498 19.5752 44.5922C22.5484 44.7583 31.46 44.7583 34.4332 44.5922C37.3181 44.4577 39.8734 43.8091 41.9788 41.7287C44.0841 39.6563 44.7431 37.1409 44.8877 34.3011C45.0565 31.3744 45.0565 22.6099 44.8877 19.6831ZM41.0466 37.4414C40.4198 38.9918 39.2065 40.1863 37.6234 40.8112C35.2529 41.7367 29.6279 41.5231 27.0083 41.5231C24.3886 41.5231 18.7556 41.7287 16.3931 40.8112C14.8181 40.1942 13.6047 38.9997 12.9699 37.4414C12.0297 35.1079 12.2467 29.5708 12.2467 26.9921C12.2467 24.4134 12.0377 18.8684 12.9699 16.5428C13.5967 14.9924 14.81 13.798 16.3931 13.1731C18.7636 12.2476 24.3886 12.4612 27.0083 12.4612C29.6279 12.4612 35.2609 12.2555 37.6234 13.1731C39.1984 13.7901 40.4118 14.9845 41.0466 16.5428C41.9868 18.8763 41.7698 24.4134 41.7698 26.9921C41.7698 29.5708 41.9868 35.1159 41.0466 37.4414Z" fill="#D2D3D5"/>
</g>
<defs>
<clipPath id="clip0_105_83">
<rect width="36" height="40.5" fill="white" transform="translate(9.00024 6.75)"/>
</clipPath>
</defs>
</svg>
