<svg width="18" height="18" viewBox="0 0 18 18" fill="#7b7c7d" xmlns="http://www.w3.org/2000/svg">
    <mask id="mask0_31_75" style="mask-type:luminance" maskUnits="userSpaceOnUse" x="0" y="0" width="18" height="18">
        <path d="M0 0H18V18H0V0Z" fill="white" />
    </mask>
    <g mask="url(#mask0_31_75)">
        <path
            d="M12.0322 10.5H5.96775C4.98185 10.5012 4.03669 10.8935 3.33969 11.5907C2.64269 12.288 2.25079 13.2333 2.25 14.2192V18H15.75V14.2178C15.7488 13.2321 15.3567 12.2872 14.6598 11.5902C13.9628 10.8933 13.0179 10.5012 12.0322 10.5Z" />
        <path
            d="M9 9C10.1935 9 11.3381 8.52589 12.182 7.68198C13.0259 6.83807 13.5 5.69347 13.5 4.5C13.5 3.30653 13.0259 2.16193 12.182 1.31802C11.3381 0.474106 10.1935 0 9 0C7.80653 0 6.66193 0.474106 5.81802 1.31802C4.97411 2.16193 4.5 3.30653 4.5 4.5C4.5 5.69347 4.97411 6.83807 5.81802 7.68198C6.66193 8.52589 7.80653 9 9 9Z" />
    </g>
</svg>